#N canvas 598 509 643 411 10;
#N canvas 385 263 577 389 beats 0;
#X obj 104 112 s pos;
#X obj 11 75 mod 16;
#X obj 11 135 mod 4;
#X obj 11 159 s beat;
#X obj 88 239 s bar;
#X obj 104 92 s step;
#X obj 88 136 mod 4;
#X obj 88 156 sel 0;
#X obj 88 177 f 0;
#X obj 118 177 + 1;
#X obj 88 219 f;
#X obj 88 198 t b f;
#X obj 11 36 f 0;
#X obj 36 36 + 1;
#X obj 45 -97 clock;
#X obj 58 -43 s notetime;
#X obj 58 -66 * 24;
#X obj 11 -62 / 24;
#X obj 11 -40 i;
#X obj 11 -15 change;
#X obj 11 9 b;
#X connect 1 0 2 0;
#X connect 1 0 0 0;
#X connect 1 0 5 0;
#X connect 1 0 6 0;
#X connect 2 0 3 0;
#X connect 6 0 7 0;
#X connect 7 0 8 0;
#X connect 8 0 9 0;
#X connect 8 0 11 0;
#X connect 9 0 8 1;
#X connect 10 0 4 0;
#X connect 11 0 10 0;
#X connect 11 1 10 1;
#X connect 12 0 13 0;
#X connect 12 0 1 0;
#X connect 13 0 12 1;
#X connect 14 0 17 0;
#X connect 14 1 16 0;
#X connect 16 0 15 0;
#X connect 17 0 18 0;
#X connect 18 0 19 0;
#X connect 19 0 20 0;
#X connect 20 0 12 0;
#X restore 32 70 pd beats;
#X obj 54 388 dac~;
#N canvas 1052 219 565 631 synth-page 0;
#X obj 21 116 t f;
#X obj 11 249 s notes-piano1;
#X obj 131 272 outlet~;
#X msg 340 107 0;
#X msg 361 128 1;
#X msg 383 149 2;
#X msg 405 170 3;
#X msg 426 108 4;
#X msg 448 129 5;
#X msg 470 150 6;
#X obj 340 220 t f;
#X obj 132 162 t f b;
#X msg 491 169 7;
#X msg 156 199 100;
#X obj 340 48 r synthpreset.s/idx;
#X obj 340 79 sel 0 1 2 3 4 5 6 7 8, f 33;
#N canvas 659 276 648 496 rj_synth 0;
#X obj 305 134 s \$0-GUI;
#X obj 20 554 outlet~;
#X obj 19 7 inlet;
#X obj 56 7 inlet;
#X obj 223 86 inlet;
#X obj 19 135 pack f f f;
#X obj 19 86 makenote;
#X obj 72 61 r notetime;
#N canvas 214 106 1368 677 czz_presets 0;
#X obj 114 -235 inlet;
#X obj 83 653 outlet name;
#X obj 83 630 symbol;
#X obj 166 652 outlet parms;
#X obj 83 582 route name;
#X obj 554 514 loadbang;
#X msg 554 543 env1a color 128 \, env1a label TONE-ATTACK \, env1d
color 128 \, env1d label TONE-DECAY \, env1r color 128 \, env1r label
TONE-REL \, env1s color 128 \, env1s label TONE-SUS \, env2a color
128 \, env2a label WIDTH-ATTACK \, env2d color 128 \, env2d label WIDTH-DECAY
\, env2r color 128 \, env2r label WIDTH-REL \, env2s color 128 \, env2s
label WIDTH-SUS \, env3a color 128 \, env3a label AMP-ATTACK \, env3d
color 128 \, env3d label AMP-DECAY \, env3r color 128 \, env3r label
AMP-REL \, env3s color 128 \, env3s label AMP-SUS \, mod1a color 128
\, mod1a label FILTER-AMT \, mod1b color 128 \, mod1b label DETUNE
\, mod1c color 128 \, mod1c label SYNC-AMT \, mod1d color 2 \, mod2a
color 2 \, mod2b color 2 \, mod2c color 2 \, mod2d color 2 \, mod3a
color 2 \, mod3b color 2 \, mod3c color 2 \, mod3d color 128 \, mod3d
label VOLME \, osc1a color 128 \, osc1a label OSC1-PW \, osc1b color
128 \, osc1b label OSC2-PW \, osc1c color 128 \, osc1c label OSC1-PWM
osc1d color 128 \, osc1d label OSC2-PWM \, osc2a color 2 \, osc2b color
2 \, osc2c color 2 \, osc2d color 2 \, osc3a color 2 \, osc3b color
2 \, osc3c color 2 \, osc3d color 2 \,;
#X text 552 460 set up the interface to be human readable and show
which controls are actually used;
#X text 554 490 Requires modified [g-hsl];
#X obj 114 -211 sel 0 1 2 3 4 5 6 7, f 86;
#X msg 20 206 name FB-String-Brass1 \, mod3d 0.565354 \, mod3c 0.181102
\, mod3b 0.173228 \, mod3a 0.275591 \, mod2d 0.141732 \, mod2c 0.393701
\, mod2b 0.220472 \, mod2a 0.472441 \, mod1d 0.299213 \, mod1c 0.125984
\, mod1b 0.19685 \, mod1a 0.133858 \, osc3d 0.314961 \, osc3c 0.220472
\, osc3b 0.527559 \, osc3a 0.409449 \, osc2d 0.559055 \, osc2c 0.645669
\, osc2b 0.543307 \, osc2a 0.377953 \, osc1d 0.377953 \, osc1c 0.307087
\, osc1b 0.614173 \, osc1a 0.866142 \, env3r 0.133858 \, env3s 0.15748
\, env3d 0.314961 \, env3a 0.259843 \, env2r 0.637795 \, env2s 0.401575
\, env2d 0.338583 \, env2a 0.299213 \, env1r 0.149606 \, env1s 0.110236
\, env1d 0.0551181 \, env1a 0.0551181 \,;
#X msg 5 55 name Gentle-Sync \, mod3d 0.565354 \, mod3c 0.181102 \,
mod3b 0.173228 \, mod3a 0.275591 \, mod2d 0.141732 \, mod2c 0.393701
\, mod2b 0.220472 \, mod2a 0.472441 \, mod1d 0.574803 \, mod1c 0.669291
\, mod1b 0.511811 \, mod1a 0.133858 \, osc3d 0.314961 \, osc3c 0.220472
\, osc3b 0.527559 \, osc3a 0.409449 \, osc2d 0.559055 \, osc2c 0.645669
\, osc2b 0.543307 \, osc2a 0.377953 \, osc1d 0.503937 \, osc1c 0.905512
\, osc1b 0.0629921 \, osc1a 0.401575 \, env3r 0.133858 \, env3s 0.15748
\, env3d 0.314961 \, env3a 0.259843 \, env2r 0.0866142 \, env2s 0.0866142
\, env2d 0.251969 \, env2a 0.141732 \, env1r 0.149606 \, env1s 0.110236
\, env1d 0.952756 \, env1a 0 \,;
#X msg 97 -54 name RoughSync-Bass \, mod3d 0.565354 \, mod3c 0.181102
\, mod3b 0.173228 \, mod3a 0.275591 \, mod2d 0.141732 \, mod2c 0.393701
\, mod2b 0.220472 \, mod2a 0.472441 \, mod1d 0.574803 \, mod1c 0.669291
\, mod1b 0.511811 \, mod1a 0.133858 \, osc3d 0.314961 \, osc3c 0.220472
\, osc3b 0.527559 \, osc3a 0.409449 \, osc2d 0.559055 \, osc2c 0.645669
\, osc2b 0.543307 \, osc2a 0.377953 \, osc1d 0.503937 \, osc1c 0.905512
\, osc1b 0.0629921 \, osc1a 0.401575 \, env3r 0.0472441 \, env3s 0.0629921
\, env3d 0.0551181 \, env3a 0.0015748 \, env2r 0.0866142 \, env2s 0.0866142
\, env2d 0.181102 \, env2a 0.0472441 \, env1r 0.149606 \, env1s 0.110236
\, env1d 0.11811 \, env1a 0 \,;
#X msg 245 -155 name Thin-Short-Bass \, mod3d 0.859055 \, mod3c 0.181102
\, mod3b 0.173228 \, mod3a 0.275591 \, mod2d 0.141732 \, mod2c 0.393701
\, mod2b 0.220472 \, mod2a 0.472441 \, mod1d 0.574803 \, mod1c 0.669291
\, mod1b 0.0708661 \, mod1a 0.409449 \, osc3d 0.314961 \, osc3c 0.220472
\, osc3b 0.527559 \, osc3a 0.409449 \, osc2d 0.559055 \, osc2c 0.645669
\, osc2b 0.543307 \, osc2a 0.377953 \, osc1d 0.015748 \, osc1c 0 \,
osc1b 0 \, osc1a 0 \, env3r 0.0472441 \, env3s 0.0393701 \, env3d 0.0551181
\, env3a 0.0015748 \, env2r 0.0866142 \, env2s 0.0866142 \, env2d 0.0866142
\, env2a 0.0472441 \, env1r 0.149606 \, env1s 0.0629921 \, env1d 0.0787402
\, env1a 0 \,;
#X msg 517 22 name Dull-Brass \, mod3d 0.651969 \, mod3c 0.181102 \,
mod3b 0.173228 \, mod3a 0.275591 \, mod2d 0.141732 \, mod2c 0.393701
\, mod2b 0.220472 \, mod2a 0.472441 \, mod1d 0 \, mod1c 0 \, mod1b
0 \, mod1a 0.188976 \, osc3d 0.251969 \, osc3c 0.220472 \, osc3b 0.527559
\, osc3a 0.409449 \, osc2d 0.559055 \, osc2c 0.645669 \, osc2b 0.543307
\, osc2a 0.377953 \, osc1d 0.952756 \, osc1c 0 \, osc1b 0 \, osc1a
0.440945 \, env3r 0.00787402 \, env3s 0.0866142 \, env3d 0.0944882
\, env3a 0.0330709 \, env2r 0.0393701 \, env2s 0.102362 \, env2d 0.23622
\, env2a 0.645669 \, env1r 0.0708661 \, env1s 0.0866142 \, env1d 0.0472441
\, env1a 0.0551181 \,;
#X msg 1130 0 name BASSIC \, mod3d 0.612598 \, mod3c 0.181102 \, mod3b
0.173228 \, mod3a 0.275591 \, mod2d 0.141732 \, mod2c 0.393701 \, mod2b
0.220472 \, mod2a 0.472441 \, mod1d 0 \, mod1c 0 \, mod1b 0.0314961
\, mod1a 0.0629921 \, osc3d 0.251969 \, osc3c 0.220472 \, osc3b 0.527559
\, osc3a 0.409449 \, osc2d 0.19685 \, osc2c 0.228346 \, osc2b 0.165354
\, osc2a 0.0944882 \, osc1d 0.566929 \, osc1c 0.0708661 \, osc1b 0.92126
\, osc1a 0.0551181 \, env3r 0.00787402 \, env3s 0 \, env3d 0.133858
\, env3a 0.00023622 \, env2r 0.0393701 \, env2s 0.440945 \, env2d 0.661417
\, env2a 0.314961 \, env1r 0.133858 \, env1s 0.724409 \, env1d 0.015748
\, env1a 0.669291 \,;
#X msg 832 309 name Slow-Thin \, mod3d 0.812598 \, mod3c 0.181102 \,
mod3b 0.173228 \, mod3a 0.275591 \, mod2d 0.141732 \, mod2c 0.393701
\, mod2b 0.220472 \, mod2a 0.472441 \, mod1d 0 \, mod1c 0 \, mod1b
0.748031 \, mod1a 0.716535 \, osc3d 0.251969 \, osc3c 0.220472 \, osc3b
0.527559 \, osc3a 0.409449 \, osc2d 0.19685 \, osc2c 0.228346 \, osc2b
0.165354 \, osc2a 0.0944882 \, osc1d 0.0708661 \, osc1c 0.125984 \,
osc1b 0.346457 \, osc1a 0.0866142 \, env3r 0.125984 \, env3s 0.244094
\, env3d 0.354331 \, env3a 0.749606 \, env2r 0.0393701 \, env2s 0.440945
\, env2d 0.141732 \, env2a 0.0314961 \, env1r 0.133858 \, env1s 0.212598
\, env1d 0.125984 \, env1a 0.0629921 \,;
#X msg 632 160 name Slow-Hollow \, mod3d 0.812598 \, mod3c 0.181102
\, mod3b 0.173228 \, mod3a 0.275591 \, mod2d 0.141732 \, mod2c 0.393701
\, mod2b 0.220472 \, mod2a 0.472441 \, mod1d 0.0314961 \, mod1c 0.0314961
\, mod1b 0.220472 \, mod1a 0.866142 \, osc3d 0.251969 \, osc3c 0.220472
\, osc3b 0.527559 \, osc3a 0.409449 \, osc2d 0.19685 \, osc2c 0.228346
\, osc2b 0.165354 \, osc2a 0.0944882 \, osc1d 0.440945 \, osc1c 0.0629921
\, osc1b 0.511811 \, osc1a 0.0866142 \, env3r 0.125984 \, env3s 0.244094
\, env3d 0.354331 \, env3a 0.655118 \, env2r 0.0787402 \, env2s 0.692913
\, env2d 0.291339 \, env2a 0.393701 \, env1r 0.133858 \, env1s 0.519685
\, env1d 0.448819 \, env1a 0.771654 \,;
#X connect 0 0 9 0;
#X connect 2 0 1 0;
#X connect 4 0 2 0;
#X connect 4 1 3 0;
#X connect 5 0 6 0;
#X connect 6 0 3 0;
#X connect 9 0 10 0;
#X connect 9 1 11 0;
#X connect 9 2 12 0;
#X connect 9 3 13 0;
#X connect 9 4 14 0;
#X connect 9 5 17 0;
#X connect 9 6 16 0;
#X connect 9 7 15 0;
#X connect 10 0 4 0;
#X connect 11 0 4 0;
#X connect 12 0 4 0;
#X connect 13 0 4 0;
#X connect 14 0 4 0;
#X connect 15 0 4 0;
#X connect 16 0 4 0;
#X connect 17 0 4 0;
#X restore 223 109 pd czz_presets;
#X obj 19 529 tanh~;
#X obj 263 203 r czz_controls;
#X obj 20 498 *~ 0.1;
#X obj 19 158 route 1 2 3 4 5 6 7 8;
#X obj 19 111 poly 8 1;
#X obj 19 201 rj/s_czz \$0-TAG;
#X obj 37 221 rj/s_czz \$0-TAG1;
#X obj 57 240 rj/s_czz \$0-TAG2;
#X obj 75 260 rj/s_czz \$0-TAG3;
#X obj 95 282 rj/s_czz \$0-TAG4;
#X obj 113 302 rj/s_czz \$0-TAG5;
#X obj 125 326 rj/s_czz \$0-TAG6;
#X obj 143 346 rj/s_czz \$0-TAG7;
#X connect 2 0 6 0;
#X connect 3 0 6 1;
#X connect 4 0 8 0;
#X connect 5 0 12 0;
#X connect 6 0 13 0;
#X connect 6 1 13 1;
#X connect 7 0 6 2;
#X connect 8 1 0 0;
#X connect 9 0 1 0;
#X connect 10 0 14 1;
#X connect 10 0 15 1;
#X connect 10 0 16 1;
#X connect 10 0 17 1;
#X connect 10 0 18 1;
#X connect 10 0 19 1;
#X connect 10 0 20 1;
#X connect 10 0 21 1;
#X connect 11 0 9 0;
#X connect 12 0 14 0;
#X connect 12 1 15 0;
#X connect 12 2 16 0;
#X connect 12 3 17 0;
#X connect 12 4 18 0;
#X connect 12 5 19 0;
#X connect 12 6 20 0;
#X connect 12 7 21 0;
#X connect 13 0 5 0;
#X connect 13 1 5 1;
#X connect 13 2 5 2;
#X connect 14 0 11 0;
#X connect 15 0 11 0;
#X connect 16 0 11 0;
#X connect 17 0 11 0;
#X connect 18 0 11 0;
#X connect 19 0 11 0;
#X connect 20 0 11 0;
#X connect 21 0 11 0;
#X restore 132 237 pd rj_synth;
#X obj 178 121 r note-markov1;
#X obj 131 89 r note-step1;
#X obj 22 87 r notes_piano;
#X obj 295 296 s b-step1;
#X connect 0 0 11 0;
#X connect 3 0 10 0;
#X connect 4 0 10 0;
#X connect 5 0 10 0;
#X connect 6 0 10 0;
#X connect 7 0 10 0;
#X connect 8 0 10 0;
#X connect 9 0 10 0;
#X connect 10 0 16 2;
#X connect 11 0 16 0;
#X connect 11 0 1 0;
#X connect 11 1 13 0;
#X connect 11 1 20 0;
#X connect 12 0 10 0;
#X connect 13 0 16 1;
#X connect 14 0 15 0;
#X connect 15 0 3 0;
#X connect 15 1 4 0;
#X connect 15 2 5 0;
#X connect 15 3 6 0;
#X connect 15 4 7 0;
#X connect 15 5 8 0;
#X connect 15 6 9 0;
#X connect 15 7 12 0;
#X connect 16 0 2 0;
#X connect 17 0 11 0;
#X connect 18 0 11 0;
#X connect 19 0 0 0;
#X restore 54 290 pd synth-page;
#N canvas 1057 586 546 360 init-reset 0;
#X obj 126 -140 loadbang;
#X obj 126 -18 s \$0-loadbang;
#X msg 161 -89 0;
#X obj 114 9 s init;
#X obj 318 -119 r reset.s;
#X obj 319 -85 s init;
#X msg 49 76 \; playback1.r 1 \; write1.r 1 \; loop1.r 1 \; synthpreset.r/idx
1 \; pd dsp 1 \;;
#X connect 0 0 1 0;
#X connect 0 0 2 0;
#X connect 0 0 6 0;
#X connect 0 0 3 0;
#X connect 4 0 5 0;
#X restore 34 23 pd init-reset;
#N canvas 241 176 886 598 markov1 0;
#N canvas 49 140 1299 685 markov-mel 0;
#X obj 54 819 + 0;
#X msg 264 230;
#X msg 361 144 reset;
#X obj 351 398 t b b;
#X msg 264 502 11 0 0 0 0 0 0 0 0 0 0 0 0 \, 10 0 0 0 0 0 0 0 0 0 0
0 0 \, 9 0 0 0 0 0 0 0 0 0 0 0 0 \, 8 0 0 0 0 0 0 0 0 0 0 0 0 \, 7
0 0 0 0 0 0 0 0 0 0 0 0 \, 6 0 0 0 0 0 0 0 0 0 0 0 0 \, 5 0 0 0 0 0
0 0 0 0 0 0 0 \, 4 0 0 0 0 0 0 0 0 0 0 0 0 \, 3 0 0 0 0 0 0 0 0 0 0
0 0 \, 2 0 0 0 0 0 0 0 0 0 0 0 0 \, 1 0 0 0 0 0 0 0 0 0 0 0 0 \, 0
0 0 0 0 0 0 0 0 0 0 0 0 \,;
#X msg 351 419 dump;
#X msg 401 427 reset;
#X text 359 478 Histograms;
#X obj 124 488 outlet;
#X obj 220 45 inlet;
#X obj 220 131 route 0;
#X obj 220 71 spigot;
#X obj 290 82 sel 0;
#X obj 290 109 t b b;
#X obj 124 384 spigot;
#X obj 334 110 t b b;
#X obj 290 54 inlet train;
#X obj 444 367 inlet play;
#X obj 221 153 t a;
#X obj 124 362 inlet bang;
#X obj 122 417 f;
#X obj 806 179 inlet load;
#X obj 817 262 outlet save;
#X obj 221 176 mod 120;
#X obj 264 444 rj/m_markovanal 120;
#X obj 124 459 rj/c_markov 120;
#X obj 264 209 rj/u_cocollect;
#X obj 264 480 rj/u_cocollect;
#X connect 1 0 22 0;
#X connect 1 0 24 0;
#X connect 2 0 26 1;
#X connect 3 0 5 0;
#X connect 3 1 27 1;
#X connect 5 0 24 1;
#X connect 6 0 24 1;
#X connect 9 0 11 0;
#X connect 10 1 18 0;
#X connect 11 0 10 0;
#X connect 12 0 13 0;
#X connect 12 1 15 0;
#X connect 13 0 3 0;
#X connect 13 1 1 0;
#X connect 14 0 20 0;
#X connect 15 0 6 0;
#X connect 15 1 2 0;
#X connect 16 0 11 1;
#X connect 16 0 12 0;
#X connect 17 0 14 1;
#X connect 18 0 23 0;
#X connect 19 0 14 0;
#X connect 20 0 25 0;
#X connect 21 0 1 0;
#X connect 23 0 20 1;
#X connect 23 0 24 0;
#X connect 23 0 26 0;
#X connect 24 0 25 1;
#X connect 24 0 27 0;
#X connect 25 0 8 0;
#X connect 25 0 20 1;
#X connect 26 0 1 0;
#X connect 27 0 4 0;
#X restore 236 261 pd markov-mel;
#N canvas 61 90 1301 686 markov-rythm 0;
#X obj 180 955 + 0;
#X msg 515 23 reset;
#X obj 485 529 t b b;
#X msg 443 640 1 0 0 \, 0 5 0 \,;
#X msg 485 557 dump;
#X floatatom 210 611 5 0 0 0 - - -, f 5;
#X msg 527 577 reset;
#X text 538 616 Histograms;
#X text 100 -19 numbers from 0 to <max - 1>;
#X obj 240 812 outlet;
#X obj 367 -93 inlet;
#X obj 369 -58 spigot;
#X obj 435 -47 sel 0;
#X obj 435 -20 t b b;
#X obj 249 520 spigot;
#X obj 492 -19 t b b;
#X obj 432 -80 inlet train;
#X obj 625 420 inlet play;
#X obj 255 544 b;
#X obj 243 472 r pos;
#X obj 265 575 f;
#X msg 491 366 0 \, 0 \, 0 \,;
#X obj 1042 263 inlet load;
#X obj 1040 426 outlet save;
#X obj 390 580 rj/m_markovanal 2;
#X obj 251 612 rj/c_markov 2;
#X obj 491 323 rj/u_cocollect;
#X obj 443 618 rj/u_cocollect;
#X connect 1 0 26 1;
#X connect 2 0 4 0;
#X connect 2 1 27 1;
#X connect 4 0 24 1;
#X connect 6 0 24 1;
#X connect 10 0 11 0;
#X connect 11 0 20 0;
#X connect 11 0 24 0;
#X connect 11 0 26 0;
#X connect 12 0 13 0;
#X connect 12 1 15 0;
#X connect 13 0 2 0;
#X connect 13 1 21 0;
#X connect 14 0 18 0;
#X connect 15 0 6 0;
#X connect 15 1 1 0;
#X connect 16 0 11 1;
#X connect 16 0 12 0;
#X connect 17 0 14 1;
#X connect 18 0 20 0;
#X connect 18 0 25 0;
#X connect 19 0 14 0;
#X connect 20 0 5 0;
#X connect 20 0 25 0;
#X connect 21 0 23 0;
#X connect 21 0 24 0;
#X connect 22 0 21 0;
#X connect 24 0 25 1;
#X connect 24 0 27 0;
#X connect 25 0 9 0;
#X connect 25 0 20 1;
#X connect 26 0 21 0;
#X connect 27 0 3 0;
#X restore 420 336 pd markov-rythm;
#X msg 532 178 1;
#X msg 420 219 0;
#X obj 420 180 r pos;
#X obj 420 199 b;
#X obj 420 357 sel 1;
#X obj 630 446 r train1;
#X obj 420 243 spigot;
#X obj 532 199 t f b b;
#X msg 571 226 0;
#X obj 551 274 delay;
#X msg 551 293 1;
#X obj 578 254 r notetime;
#X obj 625 480 r markovplay1;
#X obj 532 156 r b-step1;
#X obj 237 508 s note-markov1;
#X obj 54 469 s retro-markov1;
#X obj 176 -14 r notes-piano1;
#X text 50 260 une chaine pour la mélodie;
#X text 540 327 une chaine pour le rythme;
#X connect 0 0 17 0;
#X connect 0 0 16 0;
#X connect 1 0 6 0;
#X connect 2 0 9 0;
#X connect 3 0 8 0;
#X connect 4 0 5 0;
#X connect 5 0 3 0;
#X connect 6 0 0 0;
#X connect 7 0 0 2;
#X connect 7 0 1 1;
#X connect 8 0 1 0;
#X connect 9 0 1 0;
#X connect 9 1 11 0;
#X connect 9 2 10 0;
#X connect 10 0 8 1;
#X connect 11 0 12 0;
#X connect 12 0 8 1;
#X connect 13 0 11 1;
#X connect 14 0 0 3;
#X connect 14 0 1 2;
#X connect 15 0 2 0;
#X connect 18 0 0 1;
#X restore 38 233 pd markov1;
#N canvas 106 286 392 152 interface-synth-messages 0;
#N canvas 64 116 674 480 envs 0;
#X obj 16 8 r \$0-GUI;
#X obj 11 205 list prepend env1a;
#X obj 23 246 list prepend env1d;
#X obj 39 286 list prepend env1s;
#X obj 50 327 list prepend env1r;
#X obj 16 39 route env1a env1d env1s env1r env2a env2d env2s env2r
env3a env3d env3s env3r, f 77;
#X obj 203 198 list prepend env2a;
#X obj 215 239 list prepend env2d;
#X obj 231 279 list prepend env2s;
#X obj 242 320 list prepend env2r;
#X obj 375 194 list prepend env3a;
#X obj 387 235 list prepend env3d;
#X obj 403 275 list prepend env3s;
#X obj 414 316 list prepend env3r;
#X obj 10 184 r env1a-tone-attack.s;
#X obj 23 225 r env1d-tone-decay.s;
#X obj 36 263 r env1s-tone-sustain.s;
#X obj 50 306 r env1r-tone-release.s;
#X obj 203 179 r env2a-width-attack.s;
#X obj 215 218 r env2d-width-decay.s;
#X obj 229 259 r env2s-width-sustain.s;
#X obj 242 299 r env2r-width-release.s;
#X obj 375 175 r env3a-amp-attack.s;
#X obj 387 214 r env3d-amp-decay.s;
#X obj 401 255 r env3s-amp-sustain.s;
#X obj 414 295 r env3r-amp-release.s;
#X obj 16 73 s env1a-tone-attack.r;
#X obj 54 93 s env1d-tone-decay.r;
#X obj 92 115 s env1s-tone-sustain.r;
#X obj 130 135 s env1r-tone-release.r;
#X obj 169 71 s env2a-width-attack.r;
#X obj 207 91 s env2d-width-decay.r;
#X obj 245 113 s env2s-width-sustain.r;
#X obj 283 133 s env2r-width-release.r;
#X obj 322 68 s env3a-amp-attack.r;
#X obj 360 88 s env3d-amp-decay.r;
#X obj 398 110 s env3s-amp-sustain.r;
#X obj 436 130 s env3r-amp-release.r;
#X obj 190 422 s czz_controls;
#X connect 0 0 5 0;
#X connect 1 0 38 0;
#X connect 2 0 38 0;
#X connect 3 0 38 0;
#X connect 4 0 38 0;
#X connect 5 0 26 0;
#X connect 5 1 27 0;
#X connect 5 2 28 0;
#X connect 5 3 29 0;
#X connect 5 4 30 0;
#X connect 5 5 31 0;
#X connect 5 6 32 0;
#X connect 5 7 33 0;
#X connect 5 8 34 0;
#X connect 5 9 35 0;
#X connect 5 10 36 0;
#X connect 5 11 37 0;
#X connect 6 0 38 0;
#X connect 7 0 38 0;
#X connect 8 0 38 0;
#X connect 9 0 38 0;
#X connect 10 0 38 0;
#X connect 11 0 38 0;
#X connect 12 0 38 0;
#X connect 13 0 38 0;
#X connect 14 0 1 0;
#X connect 15 0 2 0;
#X connect 16 0 3 0;
#X connect 17 0 4 0;
#X connect 18 0 6 0;
#X connect 19 0 7 0;
#X connect 20 0 8 0;
#X connect 21 0 9 0;
#X connect 22 0 10 0;
#X connect 23 0 11 0;
#X connect 24 0 12 0;
#X connect 25 0 13 0;
#X restore 31 8 pd envs;
#N canvas 66 112 723 500 oscillators 0;
#X obj 16 8 r \$0-GUI;
#X obj 16 39 route osc1a osc1b osc1c osc1d osc2a osc2b osc2c osc2d
osc3a osc3b osc3c osc3d, f 77;
#X obj 12 205 list prepend osc1a;
#X obj 23 246 list prepend osc1b;
#X obj 39 285 list prepend osc1c;
#X obj 50 327 list prepend osc1d;
#X obj 203 199 list prepend osc2a;
#X obj 215 239 list prepend osc2b;
#X obj 231 279 list prepend osc2c;
#X obj 242 319 list prepend osc2d;
#X obj 375 194 list prepend osc3a;
#X obj 387 235 list prepend osc3b;
#X obj 16 73 s osc1a.r;
#X obj 54 92 s osc1b.r;
#X obj 92 115 s osc1c.r;
#X obj 130 135 s osc1d.r;
#X obj 11 184 r osc1a.s;
#X obj 23 225 r osc1b.s;
#X obj 37 266 r osc1c.s;
#X obj 50 306 r osc1d.s;
#X obj 169 71 s osc2a.r;
#X obj 207 91 s osc2b.r;
#X obj 245 113 s osc2c.r;
#X obj 283 133 s osc2d.r;
#X obj 325 68 s osc3a.r;
#X obj 360 88 s osc3b.r;
#X obj 203 179 r osc2a.s;
#X obj 215 218 r osc2b.s;
#X obj 229 259 r osc2c.s;
#X obj 242 299 r osc2d.s;
#X obj 375 175 r osc3a.s;
#X obj 387 214 r osc3b.s;
#X obj 419 271 r osc3c.s;
#X obj 419 290 list prepend osc3c;
#X obj 431 331 list prepend osc3d;
#X obj 431 310 r osc3d.s;
#X obj 401 112 s osc3c.r;
#X obj 436 132 s osc3d.r;
#X obj 190 422 s czz_controls;
#X connect 0 0 1 0;
#X connect 1 0 12 0;
#X connect 1 1 13 0;
#X connect 1 2 14 0;
#X connect 1 3 15 0;
#X connect 1 4 20 0;
#X connect 1 5 21 0;
#X connect 1 6 22 0;
#X connect 1 7 23 0;
#X connect 1 8 24 0;
#X connect 1 9 25 0;
#X connect 1 10 36 0;
#X connect 1 11 37 0;
#X connect 2 0 38 0;
#X connect 3 0 38 0;
#X connect 4 0 38 0;
#X connect 5 0 38 0;
#X connect 6 0 38 0;
#X connect 7 0 38 0;
#X connect 8 0 38 0;
#X connect 9 0 38 0;
#X connect 10 0 38 0;
#X connect 11 0 38 0;
#X connect 16 0 2 0;
#X connect 17 0 3 0;
#X connect 18 0 4 0;
#X connect 19 0 5 0;
#X connect 26 0 6 0;
#X connect 27 0 7 0;
#X connect 28 0 8 0;
#X connect 29 0 9 0;
#X connect 30 0 10 0;
#X connect 31 0 11 0;
#X connect 32 0 33 0;
#X connect 33 0 38 0;
#X connect 34 0 38 0;
#X connect 35 0 34 0;
#X restore 32 31 pd oscillators;
#N canvas 64 131 723 500 modifiers 0;
#X obj 16 8 r \$0-GUI;
#X obj 54 105 s mod1b.r;
#X obj 92 128 s mod1c.r;
#X obj 130 148 s mod1d.r;
#X obj 12 205 list prepend mod1a;
#X obj 23 246 list prepend mod1b;
#X obj 39 285 list prepend mod1c;
#X obj 50 327 list prepend mod1d;
#X obj 447 304 r mod3b.s;
#X obj 447 323 list prepend mod3b;
#X obj 459 364 list prepend mod3c;
#X obj 459 343 r mod3c.s;
#X obj 11 184 r mod1a.s;
#X obj 23 225 r mod1b.s;
#X obj 37 266 r mod1c.s;
#X obj 50 306 r mod1d.s;
#X obj 17 35 route mod1a mod1b mod1c mod1d mod2a mod2b mod2c mod2d
mod3a mod3b mod3c mod3d, f 84;
#X obj 346 91 s mod3a.r;
#X obj 384 111 s mod3b.r;
#X obj 415 139 s mod3c.r;
#X obj 453 159 s mod3d.r;
#X obj 175 473 s czz_controls;
#X obj 486 392 r mod3d.s;
#X obj 486 413 list prepend mod3d;
#X obj 421 262 r mod3a.s;
#X obj 421 281 list prepend mod3a;
#X obj 219 95 s mod2b.r;
#X obj 257 118 s mod2c.r;
#X obj 295 138 s mod2d.r;
#X obj 184 185 r mod2a.s;
#X obj 184 204 list prepend mod2a;
#X obj 210 227 r mod2b.s;
#X obj 210 246 list prepend mod2b;
#X obj 222 266 r mod2c.s;
#X obj 222 287 list prepend mod2c;
#X obj 249 315 r mod2d.s;
#X obj 249 336 list prepend mod2d;
#X obj 16 86 s mod1a.r;
#X obj 181 76 s mod2a.r;
#X connect 0 0 16 0;
#X connect 4 0 21 0;
#X connect 5 0 21 0;
#X connect 6 0 21 0;
#X connect 7 0 21 0;
#X connect 8 0 9 0;
#X connect 9 0 21 0;
#X connect 10 0 21 0;
#X connect 11 0 10 0;
#X connect 12 0 4 0;
#X connect 13 0 5 0;
#X connect 14 0 6 0;
#X connect 15 0 7 0;
#X connect 16 0 37 0;
#X connect 16 1 1 0;
#X connect 16 2 2 0;
#X connect 16 3 3 0;
#X connect 16 4 38 0;
#X connect 16 5 26 0;
#X connect 16 6 27 0;
#X connect 16 7 28 0;
#X connect 16 8 17 0;
#X connect 16 9 18 0;
#X connect 16 10 19 0;
#X connect 16 11 20 0;
#X connect 22 0 23 0;
#X connect 23 0 21 0;
#X connect 24 0 25 0;
#X connect 25 0 21 0;
#X connect 29 0 30 0;
#X connect 30 0 21 0;
#X connect 31 0 32 0;
#X connect 32 0 21 0;
#X connect 33 0 34 0;
#X connect 34 0 21 0;
#X connect 35 0 36 0;
#X connect 36 0 21 0;
#X restore 35 59 pd modifiers;
#X restore 32 157 pd interface-synth-messages;
#N canvas 211 238 1530 773 TOGGLES-r_s-loop 0;
#X text 78 106 keyboard;
#X text 76 381 doublons;
#X obj 433 134 note-onoff c4 48;
#X obj 637 134 note-onoff c5 60;
#X obj 257 135 note-onoff c3 36;
#X obj 257 154 note-onoff c3sharp 37;
#X obj 257 173 note-onoff d3 38;
#X obj 257 192 note-onoff d3sharp 39;
#X obj 257 211 note-onoff e3 40;
#X obj 257 230 note-onoff f3 41;
#X obj 257 249 note-onoff f3sharp 42;
#X obj 257 268 note-onoff g3 43;
#X obj 257 288 note-onoff g3sharp 44;
#X obj 257 306 note-onoff a3 45;
#X obj 257 326 note-onoff a3sharp 46;
#X obj 257 345 note-onoff b3 47;
#X obj 433 153 note-onoff c4sharp 49;
#X obj 433 172 note-onoff d4 50;
#X obj 433 191 note-onoff d4sharp 51;
#X obj 433 210 note-onoff e4 52;
#X obj 433 229 note-onoff f4 53;
#X obj 433 248 note-onoff f4sharp 54;
#X obj 433 267 note-onoff g4 55;
#X obj 433 287 note-onoff g4sharp 56;
#X obj 433 305 note-onoff a4 57;
#X obj 433 325 note-onoff a4sharp 58;
#X obj 433 344 note-onoff b4 59;
#X obj 637 153 note-onoff c5sharp 61;
#X obj 637 172 note-onoff d5 62;
#X obj 637 191 note-onoff d5sharp 63;
#X obj 637 210 note-onoff e5 64;
#X obj 637 229 note-onoff f5 65;
#X obj 637 248 note-onoff f5sharp 66;
#X obj 637 267 note-onoff g5 67;
#X obj 637 287 note-onoff g5sharp 68;
#X obj 637 305 note-onoff a5 69;
#X obj 637 325 note-onoff a5sharp 70;
#X obj 637 344 note-onoff b5 71;
#X obj 78 136 note-onoff c2 24;
#X obj 78 155 note-onoff c2sharp 25;
#X obj 78 174 note-onoff d2 26;
#X obj 78 193 note-onoff d2sharp 27;
#X obj 78 212 note-onoff e2 28;
#X obj 78 231 note-onoff f2 29;
#X obj 78 250 note-onoff f2sharp 30;
#X obj 78 269 note-onoff g2 31;
#X obj 78 289 note-onoff g2sharp 32;
#X obj 78 307 note-onoff a2 33;
#X obj 78 327 note-onoff a2sharp 34;
#X obj 78 346 note-onoff b2 35;
#X obj 808 132 note-onoff c6 72;
#X obj 808 151 note-onoff c6sharp 73;
#X obj 808 170 note-onoff d6 74;
#X obj 808 189 note-onoff d6sharp 75;
#X obj 808 208 note-onoff e6 76;
#X obj 808 227 note-onoff f6 77;
#X obj 808 246 note-onoff f6sharp 78;
#X obj 808 265 note-onoff g6 79;
#X obj 808 285 note-onoff g6sharp 80;
#X obj 808 303 note-onoff a6 81;
#X obj 808 323 note-onoff a6sharp 82;
#X obj 808 342 note-onoff b6 83;
#X obj 975 131 note-onoff c7 84;
#X obj 975 150 note-onoff c7sharp 85;
#X obj 975 169 note-onoff d7 86;
#X obj 975 188 note-onoff d7sharp 87;
#X obj 975 207 note-onoff e7 88;
#X obj 975 226 note-onoff f7 89;
#X obj 975 245 note-onoff f7sharp 90;
#X obj 975 264 note-onoff g7 91;
#X obj 975 284 note-onoff g7sharp 92;
#X obj 975 302 note-onoff a7 93;
#X obj 975 322 note-onoff a7sharp 94;
#X obj 975 341 note-onoff b7 95;
#X obj 1145 129 note-onoff c8 96;
#X obj 1145 148 note-onoff c8sharp 97;
#X obj 1145 167 note-onoff d8 98;
#X obj 1145 186 note-onoff d8sharp 99;
#X obj 1145 205 note-onoff e8 100;
#X obj 1145 224 note-onoff f8 101;
#X obj 1145 243 note-onoff f8sharp 102;
#X obj 1145 262 note-onoff g8 103;
#X obj 1145 282 note-onoff g8sharp 104;
#X obj 1145 300 note-onoff a8 105;
#X obj 1145 320 note-onoff a8sharp 106;
#X obj 1145 339 note-onoff b8 107;
#X obj 1334 129 note-onoff c9 108;
#X obj 1334 148 note-onoff c9sharp 109;
#X obj 1334 167 note-onoff d9 110;
#X obj 1334 186 note-onoff d9sharp 111;
#X obj 1334 205 note-onoff e9 112;
#X obj 1334 224 note-onoff f9 113;
#X obj 1334 243 note-onoff f9sharp 114;
#X obj 1334 262 note-onoff g9 115;
#X obj 1334 282 note-onoff g9sharp 116;
#X obj 1334 300 note-onoff a9 117;
#X obj 1334 320 note-onoff a9sharp 118;
#X obj 1334 339 note-onoff b9 119;
#X obj 67 461 note-onoff a3sharp-1 46;
#X obj 68 482 note-onoff b3-1 47;
#X obj 67 503 note-onoff b5-1 71;
#X obj 66 543 note-onoff c4-1 48;
#X obj 65 563 note-onoff c5sharp-1 61;
#X obj 67 584 note-onoff d3sharp-1 39;
#X obj 67 605 note-onoff d4-1 50;
#X obj 68 626 note-onoff e3-1 40;
#X obj 70 646 note-onoff f4-1 53;
#X obj 70 666 note-onoff g3-1 43;
#X obj 70 688 note-onoff g5-1 67;
#X obj 71 743 note-onoff f4sharp-1 54;
#X obj 71 765 note-onoff e5-1 64;
#X obj 385 421 note-onoff a7-1 93;
#X obj 385 441 note-onoff a7sharp-1 94;
#X obj 384 462 note-onoff a8sharp-1 106;
#X obj 384 483 note-onoff b7-1 95;
#X obj 382 503 note-onoff b8-1 107;
#X obj 380 524 note-onoff c7-1 84;
#X obj 380 543 note-onoff c7sharp-1 85;
#X obj 379 586 note-onoff d6sharp-1 75;
#X obj 379 607 note-onoff d7-1 86;
#X obj 377 629 note-onoff d8sharp-1 99;
#X obj 379 652 note-onoff d9-1 110;
#X obj 382 673 note-onoff e8-1 100;
#X obj 382 695 note-onoff f6sharp-1 78;
#X obj 381 715 note-onoff f7-1 89;
#X obj 382 736 note-onoff g6-1 79;
#X obj 381 755 note-onoff g7sharp-1 92;
#X obj 382 774 note-onoff g8-1 103;
#X obj 604 435 note-onoff c6-1 72;
#X obj 66 523 note-onoff c3-1 36;
#X obj 74 709 note-onoff g5sharp-1 67;
#X obj 68 434 note-onoff a4-1 46;
#X obj 380 563 note-onoff c7sharp-2 85;
#X restore 33 89 pd TOGGLES-r_s-loop;
#N canvas 8 110 1905 998 notes2names_backlight 0;
#X obj 25 117 b;
#X obj 39 162 b;
#X obj 53 206 b;
#X obj 67 253 b;
#X obj 83 297 b;
#X obj 96 343 b;
#X obj 110 386 b;
#X obj 124 430 b;
#X obj 139 477 b;
#X obj 153 523 b;
#X obj 167 564 b;
#X obj 181 606 b;
#X obj 25 24 r retro-markov1;
#X text 176 -47 on reçoit les notes de markov pour le rétro éclairage
lorsque le mode jeu est enclenché.;
#X obj 25 138 s c3.r;
#X obj 39 183 s c3sharp.r;
#X obj 53 232 s d3.r;
#X obj 67 274 s d3sharp.r;
#X obj 83 318 s e3.r;
#X obj 96 364 s f3.r;
#X obj 110 407 s f3sharp.r;
#X obj 124 451 s g3.r;
#X obj 139 498 s g3sharp.r;
#X obj 153 544 s a3.r;
#X obj 167 585 s a3sharp.r;
#X obj 181 627 s b3.r;
#X obj 331 71 b;
#X obj 345 116 b;
#X obj 359 160 b;
#X obj 389 251 b;
#X obj 402 297 b;
#X obj 416 340 b;
#X obj 430 384 b;
#X obj 445 431 b;
#X obj 459 477 b;
#X obj 473 518 b;
#X obj 487 560 b;
#X obj 331 24 r retro-markov1;
#X obj 626 68 b;
#X obj 640 113 b;
#X obj 654 157 b;
#X obj 668 204 b;
#X obj 684 248 b;
#X obj 697 294 b;
#X obj 711 337 b;
#X obj 725 381 b;
#X obj 740 428 b;
#X obj 754 474 b;
#X obj 768 515 b;
#X obj 782 557 b;
#X obj 626 22 r retro-markov1;
#X obj 331 92 s c4.r;
#X obj 345 137 s c4sharp.r;
#X obj 373 210 b;
#X obj 359 190 s d4.r;
#X obj 373 228 s d4sharp.r;
#X obj 389 272 s e4.r;
#X obj 400 318 s f4.r;
#X obj 416 361 s f4sharp.r;
#X obj 430 405 s g4.r;
#X obj 445 452 s g4sharp.r;
#X obj 459 498 s a4.r;
#X obj 473 539 s a4sharp.r;
#X obj 487 581 s b4.r;
#X obj 626 89 s c5.r;
#X obj 640 134 s c5sharp.r;
#X obj 654 183 s d5.r;
#X obj 668 225 s d5sharp.r;
#X obj 684 269 s e5.r;
#X obj 697 315 s f5.r;
#X obj 711 358 s f5sharp.r;
#X obj 725 402 s g5.r;
#X obj 740 447 s g5sharp.r;
#X obj 754 495 s a5.r;
#X obj 767 536 s a5sharp.r;
#X obj 781 578 s b5.r;
#X obj 25 47 sel 36 37 38 39 40 41 42 43 44 45 46 47;
#X obj 331 47 sel 48 49 50 51 52 53 54 55 56 57 58 59;
#X obj 626 45 sel 60 61 62 63 64 65 66 67 68 69 70 71;
#X obj 917 67 b;
#X obj 931 112 b;
#X obj 945 156 b;
#X obj 959 203 b;
#X obj 975 247 b;
#X obj 988 293 b;
#X obj 1002 336 b;
#X obj 1016 380 b;
#X obj 1031 427 b;
#X obj 1045 473 b;
#X obj 1059 514 b;
#X obj 1073 556 b;
#X obj 917 21 r retro-markov1;
#X obj 1016 401 s g5.r;
#X obj 917 44 sel 72 73 74 75 76 77 78 79 80 81 82 83;
#X obj 917 88 s c6.r;
#X obj 931 133 s c6sharp.r;
#X obj 945 182 s d6.r;
#X obj 959 224 s d6sharp.r;
#X obj 975 268 s e6.r;
#X obj 988 314 s f6.r;
#X obj 1002 357 s f6sharp.r;
#X obj 1031 446 s g6sharp.r;
#X obj 1045 494 s a6.r;
#X obj 1058 535 s a6sharp.r;
#X obj 1072 577 s b6.r;
#X obj 1207 67 b;
#X obj 1221 112 b;
#X obj 1235 156 b;
#X obj 1249 203 b;
#X obj 1265 247 b;
#X obj 1278 293 b;
#X obj 1292 336 b;
#X obj 1306 380 b;
#X obj 1321 427 b;
#X obj 1335 473 b;
#X obj 1349 514 b;
#X obj 1363 556 b;
#X obj 1207 21 r retro-markov1;
#X obj 1207 44 sel 84 85 86 87 88 89 90 91 92 93 94 95;
#X obj 1207 88 s c7.r;
#X obj 1221 133 s c7sharp.r;
#X obj 1235 182 s d7.r;
#X obj 1249 224 s d7sharp.r;
#X obj 1265 268 s e7.r;
#X obj 1278 314 s f7.r;
#X obj 1292 357 s f7sharp.r;
#X obj 1306 401 s g7.r;
#X obj 1321 446 s g7sharp.r;
#X obj 1335 494 s a7.r;
#X obj 1348 535 s a7sharp.r;
#X obj 1362 577 s b7.r;
#X obj 1499 67 b;
#X obj 1513 112 b;
#X obj 1527 156 b;
#X obj 1541 203 b;
#X obj 1557 247 b;
#X obj 1570 293 b;
#X obj 1584 336 b;
#X obj 1598 380 b;
#X obj 1613 427 b;
#X obj 1627 473 b;
#X obj 1641 514 b;
#X obj 1655 556 b;
#X obj 1499 21 r retro-markov1;
#X obj 1527 182 s d7.r;
#X obj 1499 44 sel 96 97 98 99 100 101 102 103 104 105 106 107;
#X obj 1499 88 s c8.r;
#X obj 1513 133 s c8sharp.r;
#X obj 1541 224 s d8sharp.r;
#X obj 1557 268 s e8.r;
#X obj 1570 314 s f8.r;
#X obj 1584 357 s f8sharp.r;
#X obj 1598 401 s g8.r;
#X obj 1613 446 s g8sharp.r;
#X obj 1627 494 s a8.r;
#X obj 1640 535 s a8sharp.r;
#X obj 1654 577 s b8.r;
#X obj 1843 67 b;
#X obj 1871 156 b;
#X obj 1885 203 b;
#X obj 1901 247 b;
#X obj 1914 293 b;
#X obj 1928 336 b;
#X obj 1942 380 b;
#X obj 1957 427 b;
#X obj 1971 473 b;
#X obj 1985 514 b;
#X obj 1999 556 b;
#X obj 1843 21 r retro-markov1;
#X obj 1843 44 sel 108 109 110 111 112 113 114 115 116 117 118 119
;
#X obj 1857 112 b;
#X obj 1843 88 s c9.r;
#X obj 1857 133 s c9sharp.r;
#X obj 1871 182 s d9.r;
#X obj 1885 224 s d9sharp.r;
#X obj 1901 268 s e9.r;
#X obj 1914 314 s f9.r;
#X obj 1928 357 s f9sharp.r;
#X obj 1942 401 s g9.r;
#X obj 1957 446 s g9sharp.r;
#X obj 1971 494 s a9.r;
#X obj 1984 535 s a9sharp.r;
#X obj 1998 577 s b9.r;
#X obj -262 113 b;
#X obj -248 158 b;
#X obj -234 202 b;
#X obj -220 249 b;
#X obj -204 293 b;
#X obj -191 339 b;
#X obj -177 382 b;
#X obj -163 426 b;
#X obj -148 473 b;
#X obj -134 519 b;
#X obj -120 560 b;
#X obj -106 602 b;
#X obj -262 20 r retro-markov1;
#X obj -262 43 sel 24 25 26 27 28 29 30 31 32 33 34 35;
#X obj -262 134 s c2.r;
#X obj -248 179 s c2sharp.r;
#X obj -234 228 s d2.r;
#X obj -220 270 s d2sharp.r;
#X obj -204 314 s e2.r;
#X obj -191 360 s f2.r;
#X obj -177 403 s f2sharp.r;
#X obj -163 447 s g2.r;
#X obj -148 494 s g2sharp.r;
#X obj -134 540 s a2.r;
#X obj -120 581 s a2sharp.r;
#X obj -106 623 s b2.r;
#X connect 0 0 14 0;
#X connect 1 0 15 0;
#X connect 2 0 16 0;
#X connect 3 0 17 0;
#X connect 4 0 18 0;
#X connect 5 0 19 0;
#X connect 6 0 20 0;
#X connect 7 0 21 0;
#X connect 8 0 22 0;
#X connect 9 0 23 0;
#X connect 10 0 24 0;
#X connect 11 0 25 0;
#X connect 12 0 76 0;
#X connect 26 0 51 0;
#X connect 27 0 52 0;
#X connect 28 0 54 0;
#X connect 29 0 56 0;
#X connect 30 0 57 0;
#X connect 31 0 58 0;
#X connect 32 0 59 0;
#X connect 33 0 60 0;
#X connect 34 0 61 0;
#X connect 35 0 62 0;
#X connect 36 0 63 0;
#X connect 37 0 77 0;
#X connect 38 0 64 0;
#X connect 39 0 65 0;
#X connect 40 0 66 0;
#X connect 41 0 67 0;
#X connect 42 0 68 0;
#X connect 43 0 69 0;
#X connect 44 0 70 0;
#X connect 45 0 71 0;
#X connect 46 0 72 0;
#X connect 47 0 73 0;
#X connect 48 0 74 0;
#X connect 49 0 75 0;
#X connect 50 0 78 0;
#X connect 53 0 55 0;
#X connect 76 0 0 0;
#X connect 76 1 1 0;
#X connect 76 2 2 0;
#X connect 76 3 3 0;
#X connect 76 4 4 0;
#X connect 76 5 5 0;
#X connect 76 6 6 0;
#X connect 76 7 7 0;
#X connect 76 8 8 0;
#X connect 76 9 9 0;
#X connect 76 10 10 0;
#X connect 76 11 11 0;
#X connect 77 0 26 0;
#X connect 77 1 27 0;
#X connect 77 2 28 0;
#X connect 77 3 53 0;
#X connect 77 4 29 0;
#X connect 77 5 30 0;
#X connect 77 6 31 0;
#X connect 77 7 32 0;
#X connect 77 8 33 0;
#X connect 77 9 34 0;
#X connect 77 10 35 0;
#X connect 77 11 36 0;
#X connect 78 0 38 0;
#X connect 78 1 39 0;
#X connect 78 2 40 0;
#X connect 78 3 41 0;
#X connect 78 4 42 0;
#X connect 78 5 43 0;
#X connect 78 6 44 0;
#X connect 78 7 45 0;
#X connect 78 8 46 0;
#X connect 78 9 47 0;
#X connect 78 10 48 0;
#X connect 78 11 49 0;
#X connect 79 0 94 0;
#X connect 80 0 95 0;
#X connect 81 0 96 0;
#X connect 82 0 97 0;
#X connect 83 0 98 0;
#X connect 84 0 99 0;
#X connect 85 0 100 0;
#X connect 86 0 92 0;
#X connect 87 0 101 0;
#X connect 88 0 102 0;
#X connect 89 0 103 0;
#X connect 90 0 104 0;
#X connect 91 0 93 0;
#X connect 93 0 79 0;
#X connect 93 1 80 0;
#X connect 93 2 81 0;
#X connect 93 3 82 0;
#X connect 93 4 83 0;
#X connect 93 5 84 0;
#X connect 93 6 85 0;
#X connect 93 7 86 0;
#X connect 93 8 87 0;
#X connect 93 9 88 0;
#X connect 93 10 89 0;
#X connect 93 11 90 0;
#X connect 105 0 119 0;
#X connect 106 0 120 0;
#X connect 107 0 121 0;
#X connect 108 0 122 0;
#X connect 109 0 123 0;
#X connect 110 0 124 0;
#X connect 111 0 125 0;
#X connect 112 0 126 0;
#X connect 113 0 127 0;
#X connect 114 0 128 0;
#X connect 115 0 129 0;
#X connect 116 0 130 0;
#X connect 117 0 118 0;
#X connect 118 0 105 0;
#X connect 118 1 106 0;
#X connect 118 2 107 0;
#X connect 118 3 108 0;
#X connect 118 4 109 0;
#X connect 118 5 110 0;
#X connect 118 6 111 0;
#X connect 118 7 112 0;
#X connect 118 8 113 0;
#X connect 118 9 114 0;
#X connect 118 10 115 0;
#X connect 118 11 116 0;
#X connect 131 0 146 0;
#X connect 132 0 147 0;
#X connect 133 0 144 0;
#X connect 134 0 148 0;
#X connect 135 0 149 0;
#X connect 136 0 150 0;
#X connect 137 0 151 0;
#X connect 138 0 152 0;
#X connect 139 0 153 0;
#X connect 140 0 154 0;
#X connect 141 0 155 0;
#X connect 142 0 156 0;
#X connect 143 0 145 0;
#X connect 145 0 131 0;
#X connect 145 1 132 0;
#X connect 145 2 133 0;
#X connect 145 3 134 0;
#X connect 145 4 135 0;
#X connect 145 5 136 0;
#X connect 145 6 137 0;
#X connect 145 7 138 0;
#X connect 145 8 139 0;
#X connect 145 9 140 0;
#X connect 145 10 141 0;
#X connect 145 11 142 0;
#X connect 157 0 171 0;
#X connect 158 0 173 0;
#X connect 159 0 174 0;
#X connect 160 0 175 0;
#X connect 161 0 176 0;
#X connect 162 0 177 0;
#X connect 163 0 178 0;
#X connect 164 0 179 0;
#X connect 165 0 180 0;
#X connect 166 0 181 0;
#X connect 167 0 182 0;
#X connect 168 0 169 0;
#X connect 169 0 157 0;
#X connect 169 1 170 0;
#X connect 169 2 158 0;
#X connect 169 3 159 0;
#X connect 169 4 160 0;
#X connect 169 5 161 0;
#X connect 169 6 162 0;
#X connect 169 7 163 0;
#X connect 169 8 164 0;
#X connect 169 9 165 0;
#X connect 169 10 166 0;
#X connect 169 11 167 0;
#X connect 170 0 172 0;
#X connect 183 0 197 0;
#X connect 184 0 198 0;
#X connect 185 0 199 0;
#X connect 186 0 200 0;
#X connect 187 0 201 0;
#X connect 188 0 202 0;
#X connect 189 0 203 0;
#X connect 190 0 204 0;
#X connect 191 0 205 0;
#X connect 192 0 206 0;
#X connect 193 0 207 0;
#X connect 194 0 208 0;
#X connect 195 0 196 0;
#X connect 196 0 183 0;
#X connect 196 1 184 0;
#X connect 196 2 185 0;
#X connect 196 3 186 0;
#X connect 196 4 187 0;
#X connect 196 5 188 0;
#X connect 196 6 189 0;
#X connect 196 7 190 0;
#X connect 196 8 191 0;
#X connect 196 9 192 0;
#X connect 196 10 193 0;
#X connect 196 11 194 0;
#X restore 33 109 pd notes2names_backlight;
#N canvas 951 101 958 998 names2notes_mode_piano 0;
#X obj 343 442 + 0;
#N canvas 745 248 1029 621 octave3 0;
#X obj 30 113 b;
#X obj 86 113 b;
#X obj 145 114 b;
#X obj 193 114 b;
#X obj 240 115 b;
#X obj 288 115 b;
#X obj 345 115 b;
#X obj 405 115 b;
#X obj 457 115 b;
#X obj 514 116 b;
#X obj 576 117 b;
#X obj 626 117 b;
#X obj 29 71 spigot;
#X obj 86 45 spigot;
#X obj 144 25 spigot;
#X obj 193 3 spigot;
#X obj 239 68 spigot;
#X obj 288 44 spigot;
#X obj 345 23 spigot;
#X obj 404 2 spigot;
#X obj 457 75 spigot;
#X obj 515 51 spigot;
#X obj 578 27 spigot;
#X obj 628 9 spigot;
#X obj 765 87 r playback1;
#X obj 29 -96 r c3.b;
#X obj 86 -76 r c3sharp.b;
#X obj 143 -53 r d3.b;
#X obj 193 -40 r d3sharp.b;
#X obj 239 -96 r e3.b;
#X obj 288 -75 r f3.b;
#X obj 345 -54 r f3sharp.b;
#X obj 404 -32 r g3.b;
#X obj 457 -100 r g3sharp.b;
#X obj 515 -73 r a3.b;
#X obj 579 -55 r a3sharp.b;
#X obj 628 -29 r b3.b;
#X obj 243 333 outlet;
#X msg 31 135 36;
#X msg 89 137 37;
#X msg 147 138 38;
#X msg 194 136 39;
#X msg 241 136 40;
#X msg 289 137 41;
#X msg 346 136 42;
#X msg 410 138 43;
#X msg 459 137 44;
#X msg 514 137 45;
#X msg 575 138 46;
#X msg 627 137 47;
#X obj 667 -55 r a3sharp-1.b;
#X obj 679 -29 r b3-1.b;
#X obj 79 -96 r c3-1.b;
#X obj 235 -21 r d3sharp-1.b;
#X obj 288 -96 r e3-1.b;
#X obj 456 -31 r g3-1.b;
#X connect 0 0 38 0;
#X connect 1 0 39 0;
#X connect 2 0 40 0;
#X connect 3 0 41 0;
#X connect 4 0 42 0;
#X connect 5 0 43 0;
#X connect 6 0 44 0;
#X connect 7 0 45 0;
#X connect 8 0 46 0;
#X connect 9 0 47 0;
#X connect 10 0 48 0;
#X connect 11 0 49 0;
#X connect 12 0 0 0;
#X connect 13 0 1 0;
#X connect 14 0 2 0;
#X connect 15 0 3 0;
#X connect 16 0 4 0;
#X connect 17 0 5 0;
#X connect 18 0 6 0;
#X connect 19 0 7 0;
#X connect 20 0 8 0;
#X connect 21 0 9 0;
#X connect 22 0 10 0;
#X connect 23 0 11 0;
#X connect 24 0 23 1;
#X connect 24 0 22 1;
#X connect 24 0 21 1;
#X connect 24 0 20 1;
#X connect 24 0 19 1;
#X connect 24 0 18 1;
#X connect 24 0 17 1;
#X connect 24 0 16 1;
#X connect 24 0 15 1;
#X connect 24 0 14 1;
#X connect 24 0 13 1;
#X connect 24 0 12 1;
#X connect 25 0 12 0;
#X connect 26 0 13 0;
#X connect 27 0 14 0;
#X connect 28 0 15 0;
#X connect 29 0 16 0;
#X connect 30 0 17 0;
#X connect 31 0 18 0;
#X connect 32 0 19 0;
#X connect 33 0 20 0;
#X connect 34 0 21 0;
#X connect 35 0 22 0;
#X connect 36 0 23 0;
#X connect 38 0 37 0;
#X connect 39 0 37 0;
#X connect 40 0 37 0;
#X connect 41 0 37 0;
#X connect 42 0 37 0;
#X connect 43 0 37 0;
#X connect 44 0 37 0;
#X connect 45 0 37 0;
#X connect 46 0 37 0;
#X connect 47 0 37 0;
#X connect 48 0 37 0;
#X connect 49 0 37 0;
#X connect 50 0 22 0;
#X connect 51 0 23 0;
#X connect 52 0 12 0;
#X connect 53 0 15 0;
#X connect 54 0 16 0;
#X restore 277 236 pd octave3;
#N canvas 624 110 958 998 octave4 0;
#X obj 777 560 r playback1;
#X obj 1 356 b;
#X obj 50 356 b;
#X obj 103 357 b;
#X obj 156 357 b;
#X obj 227 358 b;
#X obj 274 358 b;
#X obj 326 358 b;
#X obj 375 358 b;
#X obj 429 358 b;
#X obj 494 359 b;
#X obj 552 359 b;
#X obj 636 360 b;
#X obj 0 314 spigot;
#X obj 50 288 spigot;
#X obj 102 268 spigot;
#X obj 156 246 spigot;
#X obj 223 311 spigot;
#X obj 271 287 spigot;
#X obj 322 266 spigot;
#X obj 374 245 spigot;
#X obj 429 318 spigot;
#X obj 494 295 spigot;
#X obj 552 273 spigot;
#X obj 638 252 spigot;
#X obj 0 147 r c4.b;
#X obj 50 167 r c4sharp.b;
#X obj 102 189 r d4.b;
#X obj 156 209 r d4sharp.b;
#X obj 223 147 r e4.b;
#X obj 271 168 r f4.b;
#X obj 322 189 r f4sharp.b;
#X obj 374 211 r g4.b;
#X obj 429 143 r g4sharp.b;
#X obj 495 170 r a4.b;
#X obj 638 214 r b4.b;
#X obj 262 589 outlet;
#X msg 2 378 48;
#X msg 53 380 49;
#X msg 106 381 50;
#X msg 155 379 51;
#X msg 228 378 52;
#X msg 275 380 53;
#X msg 327 380 54;
#X msg 380 380 55;
#X msg 431 380 56;
#X msg 494 380 57;
#X msg 551 380 58;
#X msg 638 380 59;
#X obj 551 195 r a4sharp.b;
#X obj 544 169 r a4-1.b;
#X obj 52 146 r c4-1.b;
#X obj 153 188 r d4-1.b;
#X obj 319 167 r f4-1.b;
#X obj 406 187 r f4sharp-1.b;
#X connect 0 0 13 1;
#X connect 0 0 14 1;
#X connect 0 0 15 1;
#X connect 0 0 16 1;
#X connect 0 0 17 1;
#X connect 0 0 18 1;
#X connect 0 0 19 1;
#X connect 0 0 20 1;
#X connect 0 0 21 1;
#X connect 0 0 22 1;
#X connect 0 0 23 1;
#X connect 0 0 24 1;
#X connect 1 0 37 0;
#X connect 2 0 38 0;
#X connect 3 0 39 0;
#X connect 4 0 40 0;
#X connect 5 0 41 0;
#X connect 6 0 42 0;
#X connect 7 0 43 0;
#X connect 8 0 44 0;
#X connect 9 0 45 0;
#X connect 10 0 46 0;
#X connect 11 0 47 0;
#X connect 12 0 48 0;
#X connect 13 0 1 0;
#X connect 14 0 2 0;
#X connect 15 0 3 0;
#X connect 16 0 4 0;
#X connect 17 0 5 0;
#X connect 18 0 6 0;
#X connect 19 0 7 0;
#X connect 20 0 8 0;
#X connect 21 0 9 0;
#X connect 22 0 10 0;
#X connect 23 0 11 0;
#X connect 24 0 12 0;
#X connect 25 0 13 0;
#X connect 26 0 14 0;
#X connect 27 0 15 0;
#X connect 28 0 16 0;
#X connect 29 0 17 0;
#X connect 30 0 18 0;
#X connect 31 0 19 0;
#X connect 32 0 20 0;
#X connect 33 0 21 0;
#X connect 34 0 22 0;
#X connect 35 0 24 0;
#X connect 37 0 36 0;
#X connect 38 0 36 0;
#X connect 39 0 36 0;
#X connect 40 0 36 0;
#X connect 41 0 36 0;
#X connect 42 0 36 0;
#X connect 43 0 36 0;
#X connect 44 0 36 0;
#X connect 45 0 36 0;
#X connect 46 0 36 0;
#X connect 47 0 36 0;
#X connect 48 0 36 0;
#X connect 49 0 23 0;
#X connect 50 0 22 0;
#X connect 51 0 13 0;
#X connect 52 0 15 0;
#X connect 53 0 18 0;
#X connect 54 0 19 0;
#X restore 313 261 pd octave4;
#N canvas 961 81 958 998 octave5 0;
#X obj 844 365 r playback1;
#X obj 83 413 b;
#X obj 135 413 b;
#X obj 198 414 b;
#X obj 247 414 b;
#X obj 319 415 b;
#X obj 405 415 b;
#X obj 494 415 b;
#X obj 543 415 b;
#X obj 596 415 b;
#X obj 649 416 b;
#X obj 699 414 b;
#X obj 751 417 b;
#X obj 82 371 spigot;
#X obj 135 345 spigot;
#X obj 197 325 spigot;
#X obj 247 303 spigot;
#X obj 315 368 spigot;
#X obj 402 344 spigot;
#X obj 490 323 spigot;
#X obj 542 302 spigot;
#X obj 596 375 spigot;
#X obj 650 351 spigot;
#X obj 699 328 spigot;
#X obj 753 309 spigot;
#X obj 82 204 r c5.b;
#X obj 135 224 r c5sharp.b;
#X obj 197 246 r d5.b;
#X obj 247 266 r d5sharp.b;
#X obj 315 204 r e5.b;
#X obj 402 225 r f5.b;
#X obj 490 246 r f5sharp.b;
#X obj 542 268 r g5.b;
#X obj 596 200 r g5sharp.b;
#X obj 650 227 r a5.b;
#X obj 699 248 r a5sharp.b;
#X obj 753 271 r b5.b;
#X obj 343 522 outlet;
#X msg 84 435 60;
#X msg 138 437 61;
#X msg 200 438 62;
#X msg 248 436 63;
#X msg 320 436 64;
#X msg 406 437 65;
#X msg 495 436 66;
#X msg 548 438 67;
#X msg 598 437 68;
#X msg 651 436 69;
#X msg 698 435 70;
#X msg 752 437 71;
#X obj 803 271 r b5-1.b;
#X obj 221 224 r c5sharp-1.b;
#X obj 364 204 r e5-1.b;
#X obj 591 267 r g5-1.b;
#X connect 0 0 13 1;
#X connect 0 0 14 1;
#X connect 0 0 15 1;
#X connect 0 0 16 1;
#X connect 0 0 17 1;
#X connect 0 0 18 1;
#X connect 0 0 19 1;
#X connect 0 0 20 1;
#X connect 0 0 21 1;
#X connect 0 0 22 1;
#X connect 0 0 23 1;
#X connect 0 0 24 1;
#X connect 1 0 38 0;
#X connect 2 0 39 0;
#X connect 3 0 40 0;
#X connect 4 0 41 0;
#X connect 5 0 42 0;
#X connect 6 0 43 0;
#X connect 7 0 44 0;
#X connect 8 0 45 0;
#X connect 9 0 46 0;
#X connect 10 0 47 0;
#X connect 11 0 48 0;
#X connect 12 0 49 0;
#X connect 13 0 1 0;
#X connect 14 0 2 0;
#X connect 15 0 3 0;
#X connect 16 0 4 0;
#X connect 17 0 5 0;
#X connect 18 0 6 0;
#X connect 19 0 7 0;
#X connect 20 0 8 0;
#X connect 21 0 9 0;
#X connect 22 0 10 0;
#X connect 23 0 11 0;
#X connect 24 0 12 0;
#X connect 25 0 13 0;
#X connect 26 0 14 0;
#X connect 27 0 15 0;
#X connect 28 0 16 0;
#X connect 29 0 17 0;
#X connect 30 0 18 0;
#X connect 31 0 19 0;
#X connect 32 0 20 0;
#X connect 33 0 21 0;
#X connect 34 0 22 0;
#X connect 35 0 23 0;
#X connect 36 0 24 0;
#X connect 38 0 37 0;
#X connect 39 0 37 0;
#X connect 40 0 37 0;
#X connect 41 0 37 0;
#X connect 42 0 37 0;
#X connect 43 0 37 0;
#X connect 44 0 37 0;
#X connect 45 0 37 0;
#X connect 46 0 37 0;
#X connect 47 0 37 0;
#X connect 48 0 37 0;
#X connect 49 0 37 0;
#X connect 50 0 24 0;
#X connect 51 0 14 0;
#X connect 52 0 17 0;
#X connect 53 0 20 0;
#X restore 351 289 pd octave5;
#N canvas 1 93 1029 621 octave2 0;
#X obj 7 219 b;
#X obj 36 219 b;
#X obj 65 220 b;
#X obj 94 220 b;
#X obj 122 221 b;
#X obj 151 221 b;
#X obj 180 221 b;
#X obj 207 221 b;
#X obj 236 221 b;
#X obj 265 222 b;
#X obj 294 222 b;
#X obj 322 223 b;
#X obj 6 177 spigot;
#X obj 36 151 spigot;
#X obj 64 131 spigot;
#X obj 94 109 spigot;
#X obj 118 174 spigot;
#X obj 148 150 spigot;
#X obj 176 129 spigot;
#X obj 206 108 spigot;
#X obj 236 181 spigot;
#X obj 266 157 spigot;
#X obj 294 136 spigot;
#X obj 324 115 spigot;
#X obj 447 89 r playback1;
#X obj 173 439 outlet;
#X msg 8 241 24;
#X msg 39 243 25;
#X msg 67 244 26;
#X msg 95 242 27;
#X msg 123 242 28;
#X msg 152 243 29;
#X msg 181 242 30;
#X msg 212 244 31;
#X msg 238 243 32;
#X msg 265 243 33;
#X msg 293 243 34;
#X msg 323 243 35;
#X obj 5 -158 r c2.b;
#X obj 35 -138 r c2sharp.b;
#X obj 63 -116 r d2.b;
#X obj 93 -96 r d2sharp.b;
#X obj 205 -94 r g2.b;
#X obj 323 -91 r b2.b;
#X obj 293 -112 r a2sharp.b;
#X obj 175 -116 r f2sharp.b;
#X obj 265 -135 r a2.b;
#X obj 147 -137 r f2.b;
#X obj 235 -162 r g2sharp.b;
#X obj 117 -158 r e2.b;
#X connect 0 0 26 0;
#X connect 1 0 27 0;
#X connect 2 0 28 0;
#X connect 3 0 29 0;
#X connect 4 0 30 0;
#X connect 5 0 31 0;
#X connect 6 0 32 0;
#X connect 7 0 33 0;
#X connect 8 0 34 0;
#X connect 9 0 35 0;
#X connect 10 0 36 0;
#X connect 11 0 37 0;
#X connect 12 0 0 0;
#X connect 13 0 1 0;
#X connect 14 0 2 0;
#X connect 15 0 3 0;
#X connect 16 0 4 0;
#X connect 17 0 5 0;
#X connect 18 0 6 0;
#X connect 19 0 7 0;
#X connect 20 0 8 0;
#X connect 21 0 9 0;
#X connect 22 0 10 0;
#X connect 23 0 11 0;
#X connect 24 0 23 1;
#X connect 24 0 22 1;
#X connect 24 0 21 1;
#X connect 24 0 20 1;
#X connect 24 0 19 1;
#X connect 24 0 18 1;
#X connect 24 0 17 1;
#X connect 24 0 16 1;
#X connect 24 0 15 1;
#X connect 24 0 14 1;
#X connect 24 0 13 1;
#X connect 24 0 12 1;
#X connect 26 0 25 0;
#X connect 27 0 25 0;
#X connect 28 0 25 0;
#X connect 29 0 25 0;
#X connect 30 0 25 0;
#X connect 31 0 25 0;
#X connect 32 0 25 0;
#X connect 33 0 25 0;
#X connect 34 0 25 0;
#X connect 35 0 25 0;
#X connect 36 0 25 0;
#X connect 37 0 25 0;
#X connect 38 0 12 0;
#X connect 39 0 13 0;
#X connect 40 0 14 0;
#X connect 41 0 15 0;
#X connect 42 0 19 0;
#X connect 43 0 23 0;
#X connect 44 0 22 0;
#X connect 45 0 18 0;
#X connect 46 0 21 0;
#X connect 47 0 17 0;
#X connect 48 0 20 0;
#X connect 49 0 16 0;
#X restore 234 205 pd octave2;
#N canvas 678 133 1029 621 octave6 0;
#X obj 23 51 b;
#X obj 65 51 b;
#X obj 115 52 b;
#X obj 166 53 b;
#X obj 226 54 b;
#X obj 275 53 b;
#X obj 337 53 b;
#X obj 394 53 b;
#X obj 452 53 b;
#X obj 518 54 b;
#X obj 571 54 b;
#X obj 622 55 b;
#X obj 22 9 spigot;
#X obj 65 -17 spigot;
#X obj 114 -37 spigot;
#X obj 166 -58 spigot;
#X obj 222 7 spigot;
#X obj 272 -18 spigot;
#X obj 333 -39 spigot;
#X obj 393 -60 spigot;
#X obj 452 13 spigot;
#X obj 519 -11 spigot;
#X obj 571 -32 spigot;
#X obj 624 -53 spigot;
#X obj 720 256 r playback1;
#X obj 172 271 outlet;
#X obj 624 -91 r b6.b;
#X obj 393 -94 r g6.b;
#X obj 166 -95 r d6sharp.b;
#X obj 571 -112 r a6sharp.b;
#X obj 333 -116 r f6sharp.b;
#X obj 114 -116 r d6.b;
#X obj 519 -135 r a6.b;
#X obj 272 -137 r f6.b;
#X obj 65 -138 r c6sharp.b;
#X obj 22 -158 r c6.b;
#X obj 222 -157 r e6.b;
#X obj 452 -162 r g6sharp.b;
#X msg 24 73 72;
#X msg 68 75 73;
#X msg 117 76 74;
#X msg 167 75 75;
#X msg 227 75 76;
#X msg 276 75 77;
#X msg 338 74 78;
#X msg 399 76 79;
#X msg 454 75 80;
#X msg 518 75 81;
#X msg 570 75 82;
#X msg 623 75 83;
#X obj 74 -160 r c6-1.b;
#X obj 250 -96 r d6sharp-1.b;
#X obj 417 -117 r f6sharp-1.b;
#X obj 441 -95 r g6-1.b;
#X connect 0 0 38 0;
#X connect 1 0 39 0;
#X connect 2 0 40 0;
#X connect 3 0 41 0;
#X connect 4 0 42 0;
#X connect 5 0 43 0;
#X connect 6 0 44 0;
#X connect 7 0 45 0;
#X connect 8 0 46 0;
#X connect 9 0 47 0;
#X connect 10 0 48 0;
#X connect 11 0 49 0;
#X connect 12 0 0 0;
#X connect 13 0 1 0;
#X connect 14 0 2 0;
#X connect 15 0 3 0;
#X connect 16 0 4 0;
#X connect 17 0 5 0;
#X connect 18 0 6 0;
#X connect 19 0 7 0;
#X connect 20 0 8 0;
#X connect 21 0 9 0;
#X connect 22 0 10 0;
#X connect 23 0 11 0;
#X connect 24 0 23 1;
#X connect 24 0 22 1;
#X connect 24 0 21 1;
#X connect 24 0 20 1;
#X connect 24 0 19 1;
#X connect 24 0 18 1;
#X connect 24 0 17 1;
#X connect 24 0 16 1;
#X connect 24 0 15 1;
#X connect 24 0 14 1;
#X connect 24 0 13 1;
#X connect 24 0 12 1;
#X connect 26 0 23 0;
#X connect 27 0 19 0;
#X connect 28 0 15 0;
#X connect 29 0 22 0;
#X connect 30 0 18 0;
#X connect 31 0 14 0;
#X connect 32 0 21 0;
#X connect 33 0 17 0;
#X connect 34 0 13 0;
#X connect 35 0 12 0;
#X connect 36 0 16 0;
#X connect 37 0 20 0;
#X connect 38 0 25 0;
#X connect 39 0 25 0;
#X connect 40 0 25 0;
#X connect 41 0 25 0;
#X connect 42 0 25 0;
#X connect 43 0 25 0;
#X connect 44 0 25 0;
#X connect 45 0 25 0;
#X connect 46 0 25 0;
#X connect 47 0 25 0;
#X connect 48 0 25 0;
#X connect 49 0 25 0;
#X connect 50 0 12 0;
#X connect 51 0 15 0;
#X connect 52 0 18 0;
#X connect 53 0 19 0;
#X restore 393 315 pd octave6;
#N canvas 961 81 958 998 octave7 0;
#X obj 826 392 r playback1;
#X obj 58 353 b;
#X obj 108 353 b;
#X obj 165 354 b;
#X obj 229 354 b;
#X obj 280 356 b;
#X obj 333 355 b;
#X obj 391 355 b;
#X obj 443 355 b;
#X obj 496 355 b;
#X obj 553 356 b;
#X obj 612 356 b;
#X obj 674 357 b;
#X obj 57 311 spigot;
#X obj 108 285 spigot;
#X obj 164 265 spigot;
#X obj 229 243 spigot;
#X obj 280 308 spigot;
#X obj 333 284 spigot;
#X obj 391 263 spigot;
#X obj 443 242 spigot;
#X obj 496 315 spigot;
#X obj 553 290 spigot;
#X obj 612 270 spigot;
#X obj 674 249 spigot;
#X obj 262 589 outlet;
#X obj 57 144 r c7.b;
#X obj 280 144 r e7.b;
#X obj 496 140 r g7sharp.b;
#X obj 108 164 r c7sharp.b;
#X obj 333 165 r f7.b;
#X obj 554 167 r a7.b;
#X obj 164 186 r d7.b;
#X obj 391 186 r f7sharp.b;
#X obj 612 192 r a7sharp.b;
#X obj 229 206 r d7sharp.b;
#X obj 443 208 r g7.b;
#X obj 674 211 r b7.b;
#X msg 59 375 84;
#X msg 111 377 85;
#X msg 168 378 86;
#X msg 228 376 87;
#X msg 281 376 88;
#X msg 334 377 89;
#X msg 392 377 90;
#X msg 443 377 91;
#X msg 497 377 92;
#X msg 553 377 93;
#X msg 611 377 94;
#X msg 674 377 95;
#X obj 607 166 r a7-1.b;
#X obj 696 192 r a7sharp-1.b;
#X obj 727 211 r b7-1.b;
#X obj 108 143 r c7-1.b;
#X obj 189 164 r c7sharp-1.b;
#X obj 174 142 r c7sharp-2.b;
#X obj 212 186 r d7-1.b;
#X obj 384 164 r f7-1.b;
#X obj 583 141 r g7sharp-1.b;
#X connect 0 0 13 1;
#X connect 0 0 14 1;
#X connect 0 0 15 1;
#X connect 0 0 16 1;
#X connect 0 0 17 1;
#X connect 0 0 18 1;
#X connect 0 0 19 1;
#X connect 0 0 20 1;
#X connect 0 0 21 1;
#X connect 0 0 22 1;
#X connect 0 0 23 1;
#X connect 0 0 24 1;
#X connect 1 0 38 0;
#X connect 2 0 39 0;
#X connect 3 0 40 0;
#X connect 4 0 41 0;
#X connect 5 0 42 0;
#X connect 6 0 43 0;
#X connect 7 0 44 0;
#X connect 8 0 45 0;
#X connect 9 0 46 0;
#X connect 10 0 47 0;
#X connect 11 0 48 0;
#X connect 12 0 49 0;
#X connect 13 0 1 0;
#X connect 14 0 2 0;
#X connect 15 0 3 0;
#X connect 16 0 4 0;
#X connect 17 0 5 0;
#X connect 18 0 6 0;
#X connect 19 0 7 0;
#X connect 20 0 8 0;
#X connect 21 0 9 0;
#X connect 22 0 10 0;
#X connect 23 0 11 0;
#X connect 24 0 12 0;
#X connect 26 0 13 0;
#X connect 27 0 17 0;
#X connect 28 0 21 0;
#X connect 29 0 14 0;
#X connect 30 0 18 0;
#X connect 31 0 22 0;
#X connect 32 0 15 0;
#X connect 33 0 19 0;
#X connect 34 0 23 0;
#X connect 35 0 16 0;
#X connect 36 0 20 0;
#X connect 37 0 24 0;
#X connect 38 0 25 0;
#X connect 39 0 25 0;
#X connect 40 0 25 0;
#X connect 41 0 25 0;
#X connect 42 0 25 0;
#X connect 43 0 25 0;
#X connect 44 0 25 0;
#X connect 45 0 25 0;
#X connect 46 0 25 0;
#X connect 47 0 25 0;
#X connect 48 0 25 0;
#X connect 49 0 25 0;
#X connect 50 0 22 0;
#X connect 51 0 23 0;
#X connect 52 0 24 0;
#X connect 53 0 13 0;
#X connect 54 0 14 0;
#X connect 55 0 14 0;
#X connect 56 0 15 0;
#X connect 57 0 18 0;
#X connect 58 0 21 0;
#X restore 429 340 pd octave7;
#N canvas 961 81 958 998 octave8 0;
#X obj 767 365 r playback1;
#X obj 39 406 b;
#X obj 92 409 b;
#X obj 150 411 b;
#X obj 202 409 b;
#X obj 290 415 b;
#X obj 339 416 b;
#X obj 386 416 b;
#X obj 431 416 b;
#X obj 492 415 b;
#X obj 550 416 b;
#X obj 614 416 b;
#X obj 674 417 b;
#X obj 38 364 spigot;
#X obj 92 341 spigot;
#X obj 149 322 spigot;
#X obj 202 298 spigot;
#X obj 286 368 spigot;
#X obj 336 345 spigot;
#X obj 382 324 spigot;
#X obj 430 303 spigot;
#X obj 492 375 spigot;
#X obj 551 351 spigot;
#X obj 614 330 spigot;
#X obj 676 309 spigot;
#X obj 343 522 outlet;
#X obj 202 261 r d8sharp.b;
#X obj 430 269 r g8.b;
#X obj 676 271 r b8.b;
#X obj 614 250 r a8sharp.b;
#X obj 382 247 r f8sharp.b;
#X obj 149 243 r d8.b;
#X obj 92 220 r c8sharp.b;
#X obj 336 226 r f8.b;
#X obj 551 227 r a8.b;
#X obj 492 200 r g8sharp.b;
#X obj 286 204 r e8.b;
#X obj 38 197 r c8.b;
#X msg 40 428 96;
#X msg 95 433 97;
#X msg 152 435 98;
#X msg 203 431 99;
#X msg 291 436 100;
#X msg 340 438 101;
#X msg 387 437 102;
#X msg 436 439 103;
#X msg 494 437 104;
#X msg 552 436 105;
#X msg 613 437 106;
#X msg 675 437 107;
#X obj 703 248 r a8sharp-1.b;
#X obj 724 269 r b8-1.b;
#X obj 216 235 r d8sharp-1.b;
#X obj 296 183 r e8-1.b;
#X obj 480 269 r g8-1.b;
#X connect 0 0 13 1;
#X connect 0 0 14 1;
#X connect 0 0 15 1;
#X connect 0 0 16 1;
#X connect 0 0 17 1;
#X connect 0 0 18 1;
#X connect 0 0 19 1;
#X connect 0 0 20 1;
#X connect 0 0 21 1;
#X connect 0 0 22 1;
#X connect 0 0 23 1;
#X connect 0 0 24 1;
#X connect 1 0 38 0;
#X connect 2 0 39 0;
#X connect 3 0 40 0;
#X connect 4 0 41 0;
#X connect 5 0 42 0;
#X connect 6 0 43 0;
#X connect 7 0 44 0;
#X connect 8 0 45 0;
#X connect 9 0 46 0;
#X connect 10 0 47 0;
#X connect 11 0 48 0;
#X connect 12 0 49 0;
#X connect 13 0 1 0;
#X connect 14 0 2 0;
#X connect 15 0 3 0;
#X connect 16 0 4 0;
#X connect 17 0 5 0;
#X connect 18 0 6 0;
#X connect 19 0 7 0;
#X connect 20 0 8 0;
#X connect 21 0 9 0;
#X connect 22 0 10 0;
#X connect 23 0 11 0;
#X connect 24 0 12 0;
#X connect 26 0 16 0;
#X connect 27 0 20 0;
#X connect 28 0 24 0;
#X connect 29 0 23 0;
#X connect 30 0 19 0;
#X connect 31 0 15 0;
#X connect 32 0 14 0;
#X connect 33 0 18 0;
#X connect 34 0 22 0;
#X connect 35 0 21 0;
#X connect 36 0 17 0;
#X connect 37 0 13 0;
#X connect 38 0 25 0;
#X connect 39 0 25 0;
#X connect 40 0 25 0;
#X connect 41 0 25 0;
#X connect 42 0 25 0;
#X connect 43 0 25 0;
#X connect 44 0 25 0;
#X connect 45 0 25 0;
#X connect 46 0 25 0;
#X connect 47 0 25 0;
#X connect 48 0 25 0;
#X connect 49 0 25 0;
#X connect 50 0 23 0;
#X connect 51 0 24 0;
#X connect 52 0 16 0;
#X connect 53 0 17 0;
#X connect 54 0 20 0;
#X restore 467 368 pd octave8;
#N canvas 1 93 958 998 octave9 0;
#X obj 703 365 r playback1;
#X obj -84 380 b;
#X obj -21 383 b;
#X obj 41 391 b;
#X obj 99 392 b;
#X obj 187 397 b;
#X obj 249 401 b;
#X obj 310 402 b;
#X obj 374 412 b;
#X obj 436 415 b;
#X obj 491 413 b;
#X obj 550 416 b;
#X obj 610 417 b;
#X obj -85 338 spigot;
#X obj -21 315 spigot;
#X obj 40 302 spigot;
#X obj 99 281 spigot;
#X obj 183 350 spigot;
#X obj 246 330 spigot;
#X obj 306 310 spigot;
#X obj 373 299 spigot;
#X obj 436 375 spigot;
#X obj 492 348 spigot;
#X obj 550 330 spigot;
#X obj 612 309 spigot;
#X obj 343 522 outlet;
#X msg 611 437 119;
#X msg 549 437 118;
#X msg 493 433 117;
#X msg 438 437 116;
#X msg 379 435 115;
#X msg 311 423 114;
#X msg 250 423 113;
#X msg 188 418 112;
#X msg 100 414 111;
#X msg 43 415 110;
#X msg -18 407 109;
#X msg -83 402 108;
#X obj 612 271 r b9.b;
#X obj 373 265 r g9.b;
#X obj 99 244 r d9sharp.b;
#X obj 492 224 r a9.b;
#X obj 246 211 r f9.b;
#X obj -21 194 r c9sharp.b;
#X obj -85 171 r c9.b;
#X obj 183 186 r e9.b;
#X obj 436 200 r g9sharp.b;
#X obj 550 250 r a9sharp.b;
#X obj 306 233 r f9sharp.b;
#X obj 40 223 r d9.b;
#X obj 95 225 r d9-1.b;
#X connect 0 0 13 1;
#X connect 0 0 14 1;
#X connect 0 0 15 1;
#X connect 0 0 16 1;
#X connect 0 0 17 1;
#X connect 0 0 18 1;
#X connect 0 0 19 1;
#X connect 0 0 20 1;
#X connect 0 0 21 1;
#X connect 0 0 22 1;
#X connect 0 0 23 1;
#X connect 0 0 24 1;
#X connect 1 0 37 0;
#X connect 2 0 36 0;
#X connect 3 0 35 0;
#X connect 4 0 34 0;
#X connect 5 0 33 0;
#X connect 6 0 32 0;
#X connect 7 0 31 0;
#X connect 8 0 30 0;
#X connect 9 0 29 0;
#X connect 10 0 28 0;
#X connect 11 0 27 0;
#X connect 12 0 26 0;
#X connect 13 0 1 0;
#X connect 14 0 2 0;
#X connect 15 0 3 0;
#X connect 16 0 4 0;
#X connect 17 0 5 0;
#X connect 18 0 6 0;
#X connect 19 0 7 0;
#X connect 20 0 8 0;
#X connect 21 0 9 0;
#X connect 22 0 10 0;
#X connect 23 0 11 0;
#X connect 24 0 12 0;
#X connect 26 0 25 0;
#X connect 27 0 25 0;
#X connect 28 0 25 0;
#X connect 29 0 25 0;
#X connect 30 0 25 0;
#X connect 31 0 25 0;
#X connect 32 0 25 0;
#X connect 33 0 25 0;
#X connect 34 0 25 0;
#X connect 35 0 25 0;
#X connect 36 0 25 0;
#X connect 37 0 25 0;
#X connect 38 0 24 0;
#X connect 39 0 20 0;
#X connect 40 0 16 0;
#X connect 41 0 22 0;
#X connect 42 0 18 0;
#X connect 43 0 14 0;
#X connect 44 0 13 0;
#X connect 45 0 17 0;
#X connect 46 0 21 0;
#X connect 47 0 23 0;
#X connect 48 0 19 0;
#X connect 49 0 15 0;
#X connect 50 0 15 0;
#X restore 508 395 pd octave9;
#X obj 343 509 s notes_piano;
#X connect 0 0 9 0;
#X connect 1 0 0 0;
#X connect 2 0 0 0;
#X connect 3 0 0 0;
#X connect 4 0 0 0;
#X connect 5 0 0 0;
#X connect 6 0 0 0;
#X connect 7 0 0 0;
#X connect 8 0 0 0;
#X restore 33 129 pd names2notes_mode_piano;
#N canvas 1056 190 710 486 presets 0;
#X obj 513 108 r bank-load;
#X obj 513 128 persist-load bank;
#X obj 515 215 r bank-save;
#X obj 515 235 persist-save bank;
#X msg 513 72 \; bank load presets cbs;
#X msg 514 179 \; bank save presets cbs;
#X obj 513 52 r load;
#X obj 514 159 r save;
#X obj 514 22 loadsave bank;
#X obj 0 46 persist-map bank env3a-amp-attack.s env3a-amp-attack.r
;
#X obj 9 343 persist-map bank osc1a.s osc1a.r;
#X obj 10 363 persist-map bank osc1b.s osc1b.r;
#X obj 10 384 persist-map bank osc1c.s osc1c.r;
#X obj 10 406 persist-map bank osc1d.s osc1d.r;
#X obj 12 435 persist-map bank mod1a.s mod1a.r;
#X obj 12 459 persist-map bank mod1b.s mod1b.r;
#X obj 14 480 persist-map bank mod1c.s mod1c.r;
#X obj 9 143 persist-map bank env1a-tone-attack.s env1a-tone-attack.r
;
#X obj -1 69 persist-map bank env3d-amp-decay.s env3d-amp-decay.r;
#X obj -1 92 persist-map bank env3s-amp-sustain.s env3s-amp-sustain.r
;
#X obj -2 115 persist-map bank env3r-amp-release.s env3r-amp-release.r
;
#X obj 8 166 persist-map bank env1d-tone-decay.s env1d-tone-decay.r
;
#X obj 8 189 persist-map bank env1s-tone-sustain.s env1s-tone-sustain.r
;
#X obj 7 212 persist-map bank env1r-tone-release.s env1r-tone-release.r
;
#X obj 11 504 persist-map bank mod3d.s mod3d.r;
#X obj 8 240 persist-map bank env2a-width-attack.s env2a-width-attack.r
;
#X obj 7 263 persist-map bank env2d-width-decay.s env2d-width-decay.r
;
#X obj 7 286 persist-map bank env2s-width-sustain.s env2s-width-sustain.r
;
#X obj 6 309 persist-map bank env2r-width-release.s env2r-width-release.r
;
#X connect 0 0 1 0;
#X connect 2 0 3 0;
#X connect 6 0 4 0;
#X connect 7 0 5 0;
#X restore 320 100 pd presets;
#X connect 2 0 1 0;
#X connect 2 0 1 1;
