#N canvas 859 419 793 501 10;
#X obj 12 46 tgl 80 0 d6sharp d6sharp.r Eb6 24 40 0 20 -228856 -1 -1
0 1;
#X obj 12 128 tgl 80 0 d6 d6.r D6 30 40 0 20 -262144 -1 -1 0 1;
#X obj 12 210 tgl 80 0 c6sharp c6sharp.r Cd6 24 40 0 20 -228856 -1
-1 0 1;
#X obj 12 292 tgl 80 0 c6-1 c6-1.r C6 30 40 0 20 -262144 -1 -1 0 1
;
#X obj 12 374 tgl 80 0 b5 b5.r B5 30 40 0 20 -262144 -1 -1 0 1;
#X obj 75 250 tgl 80 0 e6 e6.r E6 30 40 0 20 -262144 -1 -1 0 1;
#X obj 75 168 tgl 80 0 f6 f6.r F6 24 40 0 20 -262144 -1 -1 0 1;
#X obj 74 4 tgl 80 0 g6 g6.r G6 30 40 0 20 -262144 -1 -1 0 1;
#X obj 74 86 tgl 80 0 f6sharp f6sharp.r Fd6 24 40 0 20 -228856 -1 -1
0 1;
#X obj 75 333 tgl 80 0 d6sharp-1 d6sharp-1.r Eb6 24 40 0 20 -228856
-1 -1 0 1;
#X obj 137 293 tgl 80 0 g6-1 g6-1.r G6 30 40 0 20 -262144 -1 -1 0 1
;
#X obj 137 211 tgl 80 0 g6sharp g6sharp.r Ab6 24 40 0 20 -228856 -1
-1 0 1;
#X obj 137 129 tgl 80 0 a6 a6.r A6 30 40 0 20 -262144 -1 -1 0 1;
#X obj 136 47 tgl 80 0 a6sharp a6sharp.r Bb6 25 40 0 20 -228856 -1
-1 0 1;
#X obj 138 375 tgl 80 0 f6sharp-1 f6sharp-1.r Fd6 24 40 0 20 -228856
-1 -1 0 1;
#X obj 200 170 tgl 80 0 c7 c7.r C7 30 40 0 20 -262144 -1 -1 0 1;
#X obj 200 88 tgl 80 0 c7sharp c7sharp.r Cd7 24 40 0 20 -228856 -1
-1 0 1;
#X obj 200 252 tgl 80 0 b7 b7.r B7 30 40 0 20 -262144 -1 -1 0 1;
#X obj 200 6 tgl 80 0 d7 d7.r D7 30 40 0 20 -262144 -1 -1 0 1;
#X obj 201 334 tgl 80 0 a7sharp a7sharp.r Bb7 24 40 0 20 -228856 -1
-1 0 1;
#X obj 264 211 tgl 80 0 d7sharp d7sharp.r Eb7 24 40 0 20 -228856 -1
-1 0 1;
#X obj 264 293 tgl 80 0 d7-1 d7-1.r D7 30 40 0 20 -262144 -1 -1 0 1
;
#X obj 264 129 tgl 80 0 e7 e7.r E7 30 40 0 20 -262144 -1 -1 0 1;
#X obj 264 47 tgl 80 0 f7 f7.r F7 30 40 0 20 -262144 -1 -1 0 1;
#X obj 264 375 tgl 80 0 c7sharp-1 c7sharp-1.r Cd7 24 40 0 20 -228856
-1 -1 0 1;
#X obj 327 5 tgl 80 0 a7 a7.r A7 30 40 0 20 -262144 -1 -1 0 1;
#X obj 327 87 tgl 80 0 g7sharp g7sharp.r Ab7 24 40 0 20 -228856 -1
-1 0 1;
#X obj 327 169 tgl 80 0 g7 g7.r G7 30 40 0 20 -262144 -1 -1 0 1;
#X obj 327 251 tgl 80 0 f7sharp f7sharp.r Fd7 24 40 0 20 -228856 -1
-1 0 1;
#X obj 326 333 tgl 80 0 f7-1 f7-1.r F7 24 40 0 20 -262144 -1 -1 0 1
;
#X obj 388 48 tgl 80 0 c8 c8.r C8 30 40 0 20 -262144 -1 -1 0 1;
#X obj 388 130 tgl 80 0 b7-1 b7-1.r B7 30 40 0 20 -262144 -1 -1 0 1
;
#X obj 388 212 tgl 80 0 a7sharp-1 a7sharp-1.r Bb7 24 40 0 20 -228856
-1 -1 0 1;
#X obj 388 294 tgl 80 0 a7-1 a7-1.r A7 30 40 0 20 -262144 -1 -1 0 1
;
#X obj 388 376 tgl 80 0 g7sharp-1 g7sharp-1.r Ab7 24 40 0 20 -228856
-1 -1 0 1;
#X obj 447 4 tgl 80 0 e8 e8.r E8 30 40 0 20 -262144 -1 -1 0 1;
#X obj 447 86 tgl 80 0 d8sharp d8sharp.r Eb8 24 40 0 20 -228856 -1
-1 0 1;
#X obj 447 168 tgl 80 0 d8 d8.r D8 30 40 0 20 -262144 -1 -1 0 1;
#X obj 447 250 tgl 80 0 c7sharp-2 c7sharp-2.r Cd7 24 40 0 20 -228856
-1 -1 0 1;
#X obj 510 291 tgl 80 0 e8-1 e8-1.r E8 30 40 0 20 -262144 -1 -1 0 1
;
#X obj 510 209 tgl 80 0 f8 f8.r F8 30 40 0 20 -262144 -1 -1 0 1;
#X obj 510 127 tgl 80 0 f8sharp f8sharp.r Fd8 24 40 0 20 -228856 -1
-1 0 1;
#X obj 510 45 tgl 80 0 g8 g8.r G8 30 40 0 20 -262144 -1 -1 0 1;
#X obj 573 250 tgl 80 0 g8sharp g8sharp.r Ab8 24 40 0 20 -228856 -1
-1 0 1;
#X obj 573 168 tgl 80 0 a8 a8.r A8 30 40 0 20 -262144 -1 -1 0 1;
#X obj 573 86 tgl 80 0 a8sharp a8sharp.r Bb8 24 40 0 20 -228856 -1
-1 0 1;
#X obj 573 4 tgl 80 0 b8 b8.r B8 30 40 0 20 -262144 -1 -1 0 1;
#X obj 634 47 tgl 80 0 d9 d9.r D9 30 40 0 20 -262144 -1 -1 0 1;
#X obj 634 129 tgl 80 0 c9sharp c9sharp.r Cd9 24 40 0 20 -228856 -1
-1 0 1;
#X obj 633 211 tgl 80 0 c9 c9.r C9 30 40 0 20 -262144 -1 -1 0 1;
#X obj 633 293 tgl 80 0 b8-1 b8-1.r B8 30 40 0 20 -262144 -1 -1 0 1
;
#X obj 572 333 tgl 80 0 g8-1 g8-1.r G8 30 40 0 20 -262144 -1 -1 0 1
;
#X obj 447 333 tgl 80 0 c7-1 c7-1.r C7 30 40 0 20 -262144 -1 -1 0 1
;
#X obj 634 375 tgl 80 0 a8sharp-1 a8sharp-1.r Bb8 24 40 0 20 -228856
-1 -1 0 1;
#X obj 508 374 tgl 80 0 d8sharp-1 d8sharp-1.r Eb8 24 40 0 20 -228856
-1 -1 0 1;
#X obj 696 251 tgl 80 0 d9sharp d9sharp.r Eb9 24 40 0 20 -228856 -1
-1 0 1;
#X obj 696 333 tgl 80 0 d9-1 d9-1.r D9 30 40 0 20 -262144 -1 -1 0 1
;
#X obj 696 169 tgl 80 0 e9 e9.r E9 30 40 0 20 -262144 -1 -1 0 1;
#X obj 696 87 tgl 80 0 f9 f9.r F9 30 40 0 20 -262144 -1 -1 0 1;
#X obj 696 5 tgl 80 0 f9sharp f9sharp.r Fd9 24 40 0 20 -228856 -1 -1
0 1;
#X obj 128 463 hradio 35 1 0 16 dzdazi step empty 0 -8 0 10 -262144
-1 -1 0;
#X text 129 465 1;
#X text 270 464 5;
#X text 409 464 9;
#X text 513 464 13;
