#N canvas 963 124 621 631 10;
#X obj 98 98 delay;
#X msg 98 118 0;
#X obj 98 57 sel 1;
#X obj 29 -6 r \$1;
#X obj 98 138 s \$1.r;
#X obj 125 76 r notetime;
#X obj 28 101 b;
#X obj 56 179 s \$1.b;
#X obj 28 59 sel 1;
#X floatatom 164 10 5 0 0 0 - - -, f 5;
#X floatatom 175 106 5 0 0 0 - - -, f 5;
#X obj 31 350 b;
#X obj 33 378 s \$1.r;
#X text 152 315 loop;
#X obj 24 273 spigot;
#X obj 64 239 r write1;
#X obj 222 383 s note-step1;
#X obj 88 283 bng 15 250 50 0 empty empty empty 17 7 0 10 -262144 -1
-1;
#X obj 98 370 bng 15 250 50 0 empty empty empty 17 7 0 10 -262144 -1
-1;
#X obj 27 308 taptap_2 \$1 \$2;
#X connect 0 0 1 0;
#X connect 1 0 4 0;
#X connect 2 0 0 0;
#X connect 3 0 2 0;
#X connect 3 0 8 0;
#X connect 3 0 9 0;
#X connect 5 0 0 1;
#X connect 5 0 10 0;
#X connect 6 0 7 0;
#X connect 6 0 14 0;
#X connect 8 0 6 0;
#X connect 11 0 12 0;
#X connect 14 0 17 0;
#X connect 14 0 19 0;
#X connect 15 0 14 1;
#X connect 19 0 11 0;
#X connect 19 0 16 0;
#X connect 19 0 18 0;
