#N canvas 220 114 1301 686 10;
#N canvas 73 144 858 544 oscillators 0;
#X obj 53 23 inlet;
#X obj 42 140 osc~;
#X obj 437 397 *~ 0.15;
#X obj 58 186 r harm_0_1.s;
#X obj 58 208 lop~ 10;
#X obj 42 231 *~;
#X obj 438 427 outlet~;
#X obj 141 146 osc~;
#X obj 157 214 lop~ 10;
#X obj 141 237 *~;
#X obj 245 148 osc~;
#X obj 261 216 lop~ 10;
#X obj 245 239 *~;
#X obj 351 147 osc~;
#X obj 367 215 lop~ 10;
#X obj 351 238 *~;
#X obj 141 123 * 2;
#X obj 245 124 * 3;
#X obj 351 124 * 4;
#X obj 157 192 r harm_0_2.s;
#X obj 261 194 r harm_0_3.s;
#X obj 367 193 r harm_0_4.s;
#X obj 456 149 osc~;
#X obj 472 217 lop~ 10;
#X obj 456 240 *~;
#X obj 560 151 osc~;
#X obj 576 219 lop~ 10;
#X obj 560 242 *~;
#X obj 666 150 osc~;
#X obj 682 218 lop~ 10;
#X obj 666 241 *~;
#X obj 472 195 r harm_0_5.s;
#X obj 576 197 r harm_0_6.s;
#X obj 681 196 r harm_0_7.s;
#X obj 456 126 * 5;
#X obj 560 127 * 6;
#X obj 665 127 * 7;
#X obj 763 148 osc~;
#X obj 779 216 lop~ 10;
#X obj 763 239 *~;
#X obj 762 126 * 8;
#X obj 778 194 r harm_0_8.s;
#X obj 47 62 t f f f f f f f f f, f 97;
#X connect 0 0 42 0;
#X connect 1 0 5 0;
#X connect 2 0 6 0;
#X connect 3 0 4 0;
#X connect 4 0 5 1;
#X connect 5 0 2 0;
#X connect 7 0 9 0;
#X connect 8 0 9 1;
#X connect 9 0 2 0;
#X connect 10 0 12 0;
#X connect 11 0 12 1;
#X connect 12 0 2 0;
#X connect 13 0 15 0;
#X connect 14 0 15 1;
#X connect 15 0 2 0;
#X connect 16 0 7 0;
#X connect 17 0 10 0;
#X connect 18 0 13 0;
#X connect 19 0 8 0;
#X connect 20 0 11 0;
#X connect 21 0 14 0;
#X connect 22 0 24 0;
#X connect 23 0 24 1;
#X connect 24 0 2 0;
#X connect 25 0 27 0;
#X connect 26 0 27 1;
#X connect 27 0 2 0;
#X connect 28 0 30 0;
#X connect 29 0 30 1;
#X connect 30 0 2 0;
#X connect 31 0 23 0;
#X connect 32 0 26 0;
#X connect 33 0 29 0;
#X connect 34 0 22 0;
#X connect 35 0 25 0;
#X connect 36 0 28 0;
#X connect 37 0 39 0;
#X connect 38 0 39 1;
#X connect 39 0 2 0;
#X connect 40 0 37 0;
#X connect 41 0 38 0;
#X connect 42 0 1 0;
#X connect 42 1 16 0;
#X connect 42 2 17 0;
#X connect 42 3 18 0;
#X connect 42 4 34 0;
#X connect 42 5 35 0;
#X connect 42 6 36 0;
#X connect 42 7 40 0;
#X restore 50 229 pd oscillators;
#N canvas 65 179 858 544 phasors 0;
#X obj 53 -25 inlet;
#X obj 58 186 r harm_0_1.s;
#X obj 58 208 lop~ 10;
#X obj 42 231 *~;
#X obj 438 427 outlet~;
#X obj 157 214 lop~ 10;
#X obj 141 237 *~;
#X obj 261 216 lop~ 10;
#X obj 245 239 *~;
#X obj 367 215 lop~ 10;
#X obj 351 238 *~;
#X obj 141 75 * 2;
#X obj 245 76 * 3;
#X obj 351 76 * 4;
#X obj 157 192 r harm_0_2.s;
#X obj 261 194 r harm_0_3.s;
#X obj 367 193 r harm_0_4.s;
#X obj 472 217 lop~ 10;
#X obj 456 240 *~;
#X obj 576 219 lop~ 10;
#X obj 560 242 *~;
#X obj 682 218 lop~ 10;
#X obj 666 241 *~;
#X obj 472 195 r harm_0_5.s;
#X obj 576 197 r harm_0_6.s;
#X obj 681 196 r harm_0_7.s;
#X obj 456 78 * 5;
#X obj 560 79 * 6;
#X obj 665 79 * 7;
#X obj 779 216 lop~ 10;
#X obj 763 239 *~;
#X obj 762 78 * 8;
#X obj 778 194 r harm_0_8.s;
#X obj 47 14 t f f f f f f f f f, f 97;
#X obj 41 113 phasor~;
#X obj 142 126 phasor~;
#X obj 245 113 phasor~;
#X obj 352 115 phasor~;
#X obj 454 118 phasor~;
#X obj 559 116 phasor~;
#X obj 667 118 phasor~;
#X obj 667 163 -~ 1;
#X obj 667 141 *~ 2;
#X obj 763 113 phasor~;
#X obj 763 158 -~ 1;
#X obj 763 136 *~ 2;
#X obj 437 397 *~ 0.15;
#X obj 451 166 -~ 1;
#X obj 451 144 *~ 2;
#X obj 558 165 -~ 1;
#X obj 558 143 *~ 2;
#X obj 352 170 -~ 1;
#X obj 352 148 *~ 2;
#X obj 244 171 -~ 1;
#X obj 244 149 *~ 2;
#X obj 143 167 -~ 1;
#X obj 143 145 *~ 2;
#X connect 0 0 33 0;
#X connect 1 0 2 0;
#X connect 2 0 3 1;
#X connect 3 0 46 0;
#X connect 5 0 6 1;
#X connect 6 0 46 0;
#X connect 7 0 8 1;
#X connect 8 0 46 0;
#X connect 9 0 10 1;
#X connect 10 0 46 0;
#X connect 11 0 35 0;
#X connect 12 0 36 0;
#X connect 13 0 37 0;
#X connect 14 0 5 0;
#X connect 15 0 7 0;
#X connect 16 0 9 0;
#X connect 17 0 18 1;
#X connect 18 0 46 0;
#X connect 19 0 20 1;
#X connect 20 0 46 0;
#X connect 21 0 22 1;
#X connect 22 0 46 0;
#X connect 23 0 17 0;
#X connect 24 0 19 0;
#X connect 25 0 21 0;
#X connect 26 0 38 0;
#X connect 27 0 39 0;
#X connect 28 0 40 0;
#X connect 29 0 30 1;
#X connect 30 0 46 0;
#X connect 31 0 43 0;
#X connect 32 0 29 0;
#X connect 33 0 34 0;
#X connect 33 1 11 0;
#X connect 33 2 12 0;
#X connect 33 3 13 0;
#X connect 33 4 26 0;
#X connect 33 5 27 0;
#X connect 33 6 28 0;
#X connect 33 7 31 0;
#X connect 34 0 3 0;
#X connect 35 0 56 0;
#X connect 36 0 54 0;
#X connect 37 0 52 0;
#X connect 38 0 48 0;
#X connect 39 0 50 0;
#X connect 40 0 42 0;
#X connect 41 0 22 0;
#X connect 42 0 41 0;
#X connect 43 0 45 0;
#X connect 44 0 30 0;
#X connect 45 0 44 0;
#X connect 46 0 4 0;
#X connect 47 0 18 0;
#X connect 48 0 47 0;
#X connect 49 0 20 0;
#X connect 50 0 49 0;
#X connect 51 0 10 0;
#X connect 52 0 51 0;
#X connect 53 0 8 0;
#X connect 54 0 53 0;
#X connect 55 0 6 0;
#X connect 56 0 55 0;
#X restore 179 229 pd phasors;
#X obj 69 336 r phasor-osc-1.s;
#X obj 51 470 *~;
#X obj 178 472 *~;
#X obj 195 446 lop~ 10;
#X obj 69 446 lop~ 10;
#X obj 69 359 t f f;
#X obj 97 383 swap 1;
#X obj 97 406 -;
#X obj 556 60 r dt;
#X obj 539 218 *;
#X obj 620 87 r notedur-1.s;
#X obj 647 156 sel 0 1 2 3 4 5 6 7;
#X obj 52 639 *~;
#X obj 87 89 inlet;
#X obj 87 111 t f b;
#X obj 296 573 line~;
#X msg 296 450 1 \$1;
#X obj 296 306 f;
#X obj 296 336 t f b f;
#X obj 335 450 delay;
#X obj 335 503 f;
#X msg 335 528 0 \$1;
#X obj 53 675 outlet~;
#X obj 311 143 r attack-1.s;
#X obj 421 390 r decay-1.s;
#X obj 377 272 r length-1.s;
#X obj 362 409 +;
#X obj 377 385 *;
#X obj 311 283 *;
#X obj 421 498 *;
#X obj 539 197 f;
#X obj 338 260 f;
#X obj 311 226 t f b;
#X obj 404 360 f;
#X obj 377 326 t f b;
#X obj 448 476 f;
#X obj 421 447 t f b;
#X obj 647 201 f 0.5;
#X obj 660 226 f 1;
#X obj 674 253 f 2;
#X obj 688 276 f 3;
#X obj 702 299 f 4;
#X obj 716 320 f 5;
#X obj 730 342 f 6;
#X obj 353 235 / 3;
#X obj 419 331 / 3;
#X obj 463 450 / 3;
#X obj 311 181 f;
#X obj 378 300 f;
#X obj 421 418 f;
#X floatatom 264 227 5 0 0 0 - - -, f 5;
#X floatatom 254 334 5 0 0 0 - - -, f 5;
#X obj 620 111 t b b f;
#X connect 0 0 3 0;
#X connect 1 0 4 0;
#X connect 2 0 7 0;
#X connect 3 0 14 0;
#X connect 4 0 14 0;
#X connect 5 0 4 1;
#X connect 6 0 3 1;
#X connect 7 0 6 0;
#X connect 7 1 8 0;
#X connect 8 0 9 0;
#X connect 8 1 9 1;
#X connect 9 0 5 0;
#X connect 10 0 32 1;
#X connect 11 0 46 0;
#X connect 11 0 47 0;
#X connect 11 0 48 0;
#X connect 12 0 54 0;
#X connect 13 0 39 0;
#X connect 13 1 40 0;
#X connect 13 2 41 0;
#X connect 13 3 42 0;
#X connect 13 4 43 0;
#X connect 13 5 44 0;
#X connect 13 6 45 0;
#X connect 14 0 24 0;
#X connect 15 0 16 0;
#X connect 16 0 0 0;
#X connect 16 0 1 0;
#X connect 16 1 19 0;
#X connect 17 0 14 1;
#X connect 18 0 17 0;
#X connect 19 0 20 0;
#X connect 19 0 53 0;
#X connect 20 0 18 0;
#X connect 20 1 21 0;
#X connect 20 2 28 0;
#X connect 21 0 22 0;
#X connect 22 0 23 0;
#X connect 23 0 17 0;
#X connect 25 0 49 1;
#X connect 25 0 49 0;
#X connect 26 0 51 0;
#X connect 26 0 51 1;
#X connect 27 0 50 0;
#X connect 27 0 50 1;
#X connect 28 0 21 1;
#X connect 29 0 28 1;
#X connect 30 0 19 1;
#X connect 31 0 22 1;
#X connect 32 0 11 0;
#X connect 33 0 30 1;
#X connect 34 0 30 0;
#X connect 34 1 33 0;
#X connect 35 0 29 1;
#X connect 36 0 29 0;
#X connect 36 1 35 0;
#X connect 37 0 31 1;
#X connect 38 0 31 0;
#X connect 38 1 37 0;
#X connect 39 0 11 1;
#X connect 40 0 11 1;
#X connect 41 0 11 1;
#X connect 42 0 11 1;
#X connect 43 0 11 1;
#X connect 44 0 11 1;
#X connect 45 0 11 1;
#X connect 46 0 33 1;
#X connect 47 0 35 1;
#X connect 48 0 37 1;
#X connect 49 0 34 0;
#X connect 49 0 52 0;
#X connect 50 0 36 0;
#X connect 51 0 38 0;
#X connect 54 0 49 0;
#X connect 54 0 50 0;
#X connect 54 0 51 0;
#X connect 54 1 32 0;
#X connect 54 2 13 0;
