#N canvas 416 184 843 493 10;
#X obj 30 7 r \$1;
#X obj 123 -3 inlet;
#X obj 30 175 f \$2;
#X obj 30 92 b;
#X obj 30 260 outlet;
#X obj 30 218 spigot;
#X msg 324 30 dump;
#X obj 339 230 outlet;
#X obj 324 -6 r save_everything;
#X msg 418 89 clear;
#X obj 429 55 r wordbutton-Synth-reset;
#X obj 418 33 r reset.s;
#X obj 370 150 r loop1;
#X obj 30 68 c_taptap 16;
#X obj 164 101 bng 15 250 50 0 empty empty empty 17 7 0 10 -262144
-1 -1;
#X obj 94 29 b;
#X floatatom 47 43 5 0 0 0 - - -, f 5;
#X connect 0 0 13 0;
#X connect 0 0 16 0;
#X connect 1 0 14 0;
#X connect 1 0 15 0;
#X connect 2 0 5 0;
#X connect 3 0 2 0;
#X connect 5 0 4 0;
#X connect 6 0 13 1;
#X connect 8 0 6 0;
#X connect 9 0 13 1;
#X connect 10 0 9 0;
#X connect 11 0 9 0;
#X connect 12 0 5 1;
#X connect 13 0 3 0;
#X connect 13 1 7 0;
#X connect 15 0 13 1;
