#N canvas 65 142 807 502 10;
#X obj 267 212 tgl 80 0 c4 c4.r C4 30 40 0 20 -262144 -1 -1 0 1;
#X obj 267 130 tgl 80 0 c4sharp c4sharp.r Cd4 24 40 0 20 -228856 -1
-1 0 1;
#X obj 329 253 tgl 80 0 d4sharp d4sharp.r Eb4 24 40 0 20 -228856 -1
-1 0 1;
#X obj 143 294 tgl 80 0 e3 e3.r E3 30 40 0 20 -262144 -1 -1 0 1;
#X obj 143 212 tgl 80 0 f3 f3.r F3 24 40 0 20 -262144 -1 -1 0 1;
#X obj 205 335 tgl 80 0 g3 g3.r G3 30 40 0 20 -262144 -1 -1 0 1;
#X obj 205 253 tgl 80 0 g3sharp g3sharp.r Ab3 24 40 0 20 -228856 -1
-1 0 1;
#X obj 205 171 tgl 80 0 a3 a3.r A3 30 40 0 20 -262144 -1 -1 0 1;
#X obj 267 294 tgl 80 0 b3 b3.r B3 30 40 0 20 -262144 -1 -1 0 1;
#X obj 204 89 tgl 80 0 a3sharp a3sharp.r Bb3 25 40 0 20 -228856 -1
-1 0 1;
#X obj 329 335 tgl 80 0 d4 d4.r D4 30 40 0 20 -262144 -1 -1 0 1;
#X obj 329 171 tgl 80 0 e4 e4.r E4 30 40 0 20 -262144 -1 -1 0 1;
#X obj 329 89 tgl 80 0 f4 f4.r F4 30 40 0 20 -262144 -1 -1 0 1;
#X obj 141 48 tgl 80 0 g3-1 g3-1.r G3 30 40 0 20 -262144 -1 -1 0 1
;
#X obj 267 48 tgl 80 0 d4-1 d4-1.r D4 30 40 0 20 -262144 -1 -1 0 1
;
#X obj 204 7 tgl 80 0 b3-1 b3-1.r B3 30 40 0 20 -262144 -1 -1 0 1;
#X obj 329 7 tgl 80 0 f4sharp f4sharp.r Fd4 24 40 0 20 -228856 -1 -1
0 1;
#X obj 392 48 tgl 80 0 a4 a4.r A4 30 40 0 20 -262144 -1 -1 0 1;
#X obj 392 130 tgl 80 0 g4sharp g4sharp.r Ab4 24 40 0 20 -228856 -1
-1 0 1;
#X obj 392 212 tgl 80 0 g4 g4.r G4 30 40 0 20 -262144 -1 -1 0 1;
#X obj 392 294 tgl 80 0 f4sharp-1 f4sharp-1.r Fd4 24 40 0 20 -228856
-1 -1 0 1;
#X obj 454 7 tgl 80 0 c5sharp c5sharp.r Cd5 24 40 0 20 -228856 -1 -1
0 1;
#X obj 454 89 tgl 80 0 c5 c5.r C5 30 40 0 20 -262144 -1 -1 0 1;
#X obj 454 171 tgl 80 0 b4 b4.r B4 30 40 0 20 -262144 -1 -1 0 1;
#X obj 454 253 tgl 80 0 a4sharp a4sharp.r Bb4 24 40 0 20 -228856 -1
-1 0 1;
#X obj 454 335 tgl 80 0 a4-1 a4-1.r A4 30 40 0 20 -262144 -1 -1 0 1
;
#X obj 517 48 tgl 80 0 e5 e5.r E5 30 40 0 20 -262144 -1 -1 0 1;
#X obj 517 130 tgl 80 0 d5sharp d5sharp.r Eb5 24 40 0 20 -228856 -1
-1 0 1;
#X obj 517 212 tgl 80 0 d5 d5.r D5 30 40 0 20 -262144 -1 -1 0 1;
#X obj 517 294 tgl 80 0 c5sharp-1 c5sharp-1.r Cd4 24 40 0 20 -228856
-1 -1 0 1;
#X obj 580 335 tgl 80 0 e5-1 e5-1.r E5 30 40 0 20 -262144 -1 -1 0 1
;
#X obj 580 253 tgl 80 0 f5 f5.r F5 30 40 0 20 -262144 -1 -1 0 1;
#X obj 580 171 tgl 80 0 f5sharp f5sharp.r Fd5 24 40 0 20 -228856 -1
-1 0 1;
#X obj 580 89 tgl 80 0 g5 g5.r G5 30 40 0 20 -262144 -1 -1 0 1;
#X obj 16 377 tgl 80 0 g2sharp g2sharp.r Ab2 25 40 0 20 -228856 -1
-1 0 1;
#X obj 643 294 tgl 80 0 g5sharp g5sharp.r Ab5 24 40 0 20 -228856 -1
-1 0 1;
#X obj 643 212 tgl 80 0 a5 a5.r A5 30 40 0 20 -262144 -1 -1 0 1;
#X obj 643 130 tgl 80 0 a5sharp a5sharp.r Bb5 24 40 0 20 -228856 -1
-1 0 1;
#X obj 643 48 tgl 80 0 b5 b5.r B5 30 40 0 20 -262144 -1 -1 0 1;
#X obj 78 7 tgl 80 0 e3-1 e3-1.r E3 30 40 0 20 -262144 -1 -1 0 1;
#X obj 78 89 tgl 80 0 d3sharp d3sharp.r Eb3 24 40 0 20 -228856 -1 -1
0 1;
#X obj 79 171 tgl 80 0 d3 d3.r D3 30 40 0 20 -262144 -1 -1 0 1;
#X obj 79 335 tgl 80 0 c3 c3.r C3 30 40 0 20 -262144 -1 -1 0 1;
#X obj 15 48 tgl 80 0 c3-1 c3-1.r C3 30 40 0 20 -262144 -1 -1 0 1;
#X obj 15 130 tgl 80 0 b2 b2.r B2 30 40 0 20 -262144 -1 -1 0 1;
#X obj 15 212 tgl 80 0 a2sharp a2sharp.r Bb2 24 40 0 20 -228856 -1
-1 0 1;
#X obj 15 294 tgl 80 0 a2 a2.r A2 30 40 0 20 -262144 -1 -1 0 1;
#X obj 705 9 tgl 80 0 d6sharp d6sharp.r Eb6 24 40 0 20 -228856 -1 -1
0 1;
#X obj 705 91 tgl 80 0 d6 d6.r D6 30 40 0 20 -262144 -1 -1 0 1;
#X obj 705 173 tgl 80 0 c6sharp c6sharp.r Cd6 24 40 0 20 -228856 -1
-1 0 1;
#X obj 705 255 tgl 80 0 c6 c6.r C6 30 40 0 20 -262144 -1 -1 0 1;
#X obj 705 337 tgl 80 0 b5-1 b5-1.r B5 30 40 0 20 -262144 -1 -1 0 1
;
#X obj 642 377 tgl 80 0 g5-1 g5-1.r G5 30 40 0 20 -262144 -1 -1 0 1
;
#X obj 516 377 tgl 80 0 c4-1 c4-1.r C4 30 40 0 20 -262144 -1 -1 0 1
;
#X obj 391 376 tgl 80 0 f4-1 f4-1.r F4 24 40 0 20 -262144 -1 -1 0 1
;
#X obj 268 376 tgl 80 0 a3sharp-1 a3sharp-1.r Bb3 24 40 0 20 -228856
-1 -1 0 1;
#X obj 142 377 tgl 80 0 d3sharp-1 d3sharp-1.r Eb3 24 40 0 20 -228856
-1 -1 0 1;
#X obj 79 253 tgl 80 0 c3sharp c3sharp.r Cd3 24 40 0 20 -228856 -1
-1 0 1;
#X obj 141 130 tgl 80 0 f3sharp f3sharp.r Fd3 24 40 0 20 -228856 -1
-1 0 1;
#X obj 580 7 tgl 80 0 g5sharp-1 g5sharp-1.r Ab5 25 40 0 20 -228856
-1 -1 0 1;
#X obj 128 463 hradio 35 1 0 16 dzdazi step empty 0 -8 0 10 -262144
-1 -1 3;
#X text 129 465 1;
#X text 270 464 5;
#X text 409 464 9;
#X text 513 464 13;
