#N canvas 686 182 643 411 10;
#X declare -path rj;
#N canvas 421 188 577 389 beats 0;
#X obj 104 112 s pos;
#X obj 11 75 mod 16;
#X obj 11 135 mod 4;
#X obj 11 159 s beat;
#X obj 88 239 s bar;
#X obj 104 92 s step;
#X obj 88 136 mod 4;
#X obj 88 156 sel 0;
#X obj 88 177 f 0;
#X obj 118 177 + 1;
#X obj 88 219 f;
#X obj 88 198 t b f;
#X obj 11 36 f 0;
#X obj 36 36 + 1;
#X obj 45 -97 clock;
#X obj 58 -43 s notetime;
#X obj 58 -66 * 24;
#X obj 11 -62 / 24;
#X obj 11 -40 i;
#X obj 11 -15 change;
#X obj 11 9 b;
#X connect 1 0 2 0;
#X connect 1 0 0 0;
#X connect 1 0 5 0;
#X connect 1 0 6 0;
#X connect 2 0 3 0;
#X connect 6 0 7 0;
#X connect 7 0 8 0;
#X connect 8 0 9 0;
#X connect 8 0 11 0;
#X connect 9 0 8 1;
#X connect 10 0 4 0;
#X connect 11 0 10 0;
#X connect 11 1 10 1;
#X connect 12 0 13 0;
#X connect 12 0 1 0;
#X connect 13 0 12 1;
#X connect 14 0 17 0;
#X connect 14 1 16 0;
#X connect 16 0 15 0;
#X connect 17 0 18 0;
#X connect 18 0 19 0;
#X connect 19 0 20 0;
#X connect 20 0 12 0;
#X restore 33 -173 pd beats;
#X obj 35 2 dac~;
#N canvas 705 92 565 631 synth-page 0;
#X obj 21 116 t f;
#N canvas 66 92 1277 612 mode_piano 0;
#X obj 6 51 b;
#X obj 35 51 b;
#X obj 64 52 b;
#X obj 93 52 b;
#X obj 121 53 b;
#X obj 150 53 b;
#X obj 179 53 b;
#X obj 206 53 b;
#X obj 235 53 b;
#X obj 264 54 b;
#X obj 293 54 b;
#X obj 321 55 b;
#X obj 5 9 spigot;
#X obj 35 -17 spigot;
#X obj 63 -37 spigot;
#X obj 93 -59 spigot;
#X obj 117 6 spigot;
#X obj 147 -18 spigot;
#X obj 175 -39 spigot;
#X obj 205 -60 spigot;
#X obj 235 13 spigot;
#X obj 265 -11 spigot;
#X obj 293 -32 spigot;
#X obj 323 -53 spigot;
#X msg 7 75 60;
#X msg 38 75 61;
#X msg 67 74 62;
#X msg 94 74 63;
#X msg 122 74 64;
#X msg 151 75 65;
#X msg 180 74 66;
#X msg 211 74 67;
#X msg 240 73 68;
#X msg 267 73 69;
#X msg 295 73 70;
#X msg 324 74 71;
#X obj 356 20 r playback1;
#X obj 5 -158 r c.b;
#X obj 35 -138 r csharp.b;
#X obj 63 -116 r d.b;
#X obj 93 -96 r dsharp.b;
#X obj 117 -158 r e.b;
#X obj 147 -137 r f.b;
#X obj 175 -116 r fsharp.b;
#X obj 205 -94 r g.b;
#X obj 235 -162 r gsharp.b;
#X obj 265 -135 r a.b;
#X obj 294 -112 r asharp.b;
#X obj 323 -91 r b.b;
#X obj 154 172 outlet;
#X text 218 175 on envoit directement les notes vers le synthé;
#X text 434 20 on reçoit le toggle validant le mode piano;
#X connect 0 0 24 0;
#X connect 1 0 25 0;
#X connect 2 0 26 0;
#X connect 3 0 27 0;
#X connect 4 0 28 0;
#X connect 5 0 29 0;
#X connect 6 0 30 0;
#X connect 7 0 31 0;
#X connect 8 0 32 0;
#X connect 9 0 33 0;
#X connect 10 0 34 0;
#X connect 11 0 35 0;
#X connect 12 0 0 0;
#X connect 13 0 1 0;
#X connect 14 0 2 0;
#X connect 15 0 3 0;
#X connect 16 0 4 0;
#X connect 17 0 5 0;
#X connect 18 0 6 0;
#X connect 19 0 7 0;
#X connect 20 0 8 0;
#X connect 21 0 9 0;
#X connect 22 0 10 0;
#X connect 23 0 11 0;
#X connect 24 0 49 0;
#X connect 25 0 49 0;
#X connect 26 0 49 0;
#X connect 27 0 49 0;
#X connect 28 0 49 0;
#X connect 29 0 49 0;
#X connect 30 0 49 0;
#X connect 31 0 49 0;
#X connect 32 0 49 0;
#X connect 33 0 49 0;
#X connect 34 0 49 0;
#X connect 35 0 49 0;
#X connect 36 0 23 1;
#X connect 36 0 22 1;
#X connect 36 0 21 1;
#X connect 36 0 20 1;
#X connect 36 0 19 1;
#X connect 36 0 18 1;
#X connect 36 0 17 1;
#X connect 36 0 16 1;
#X connect 36 0 15 1;
#X connect 36 0 14 1;
#X connect 36 0 13 1;
#X connect 36 0 12 1;
#X connect 37 0 12 0;
#X connect 38 0 13 0;
#X connect 39 0 14 0;
#X connect 40 0 15 0;
#X connect 41 0 16 0;
#X connect 42 0 17 0;
#X connect 43 0 18 0;
#X connect 44 0 19 0;
#X connect 45 0 20 0;
#X connect 46 0 21 0;
#X connect 47 0 22 0;
#X connect 48 0 23 0;
#X restore 21 90 pd mode_piano;
#X obj 21 179 s notes-piano1;
#N canvas 287 90 886 598 markov1 0;
#N canvas 68 111 1299 685 markov-mel 0;
#X obj 54 819 + 0;
#X msg 264 230;
#X obj 264 209 u_cocollect;
#X msg 361 144 reset;
#X obj 351 398 t b b;
#X obj 264 480 u_cocollect;
#X msg 264 502 11 0 0 0 0 0 0 0 0 0 0 0 0 \, 10 0 0 0 0 0 0 0 0 0 0
0 0 \, 9 0 0 0 0 0 0 0 0 0 0 0 0 \, 8 0 0 0 0 0 0 0 0 0 0 0 0 \, 7
0 0 0 0 0 0 0 0 0 0 0 0 \, 6 0 0 0 0 0 0 0 0 0 0 0 0 \, 5 0 0 0 0 0
0 0 0 0 0 0 0 \, 4 0 0 0 0 0 0 0 0 0 0 0 0 \, 3 0 0 0 0 0 0 0 0 0 0
0 0 \, 2 0 0 0 0 0 0 0 0 0 0 0 0 \, 1 0 0 0 0 0 0 0 0 0 0 0 0 \, 0
0 0 0 0 0 0 0 0 0 0 0 0 \,;
#X msg 351 419 dump;
#X msg 401 427 reset;
#X text 359 478 Histograms;
#X obj 124 488 outlet;
#X obj 264 444 m_markovanal 12;
#X obj 124 461 c_markov 12;
#X obj 220 45 inlet;
#X obj 220 131 route 0;
#X obj 220 71 spigot;
#X obj 290 82 sel 0;
#X obj 290 109 t b b;
#X obj 124 384 spigot;
#X obj 334 110 t b b;
#X obj 290 54 inlet train;
#X obj 444 367 inlet play;
#X obj 221 175 mod 60;
#X obj 221 153 t a;
#X obj 124 362 inlet bang;
#X obj 124 408 f;
#X obj 806 179 inlet load;
#X obj 817 262 outlet save;
#X connect 1 0 11 0;
#X connect 1 0 27 0;
#X connect 2 0 1 0;
#X connect 3 0 2 1;
#X connect 4 0 7 0;
#X connect 4 1 5 1;
#X connect 5 0 6 0;
#X connect 7 0 11 1;
#X connect 8 0 11 1;
#X connect 11 0 5 0;
#X connect 11 0 12 1;
#X connect 12 0 10 0;
#X connect 12 0 25 1;
#X connect 13 0 15 0;
#X connect 14 1 23 0;
#X connect 15 0 14 0;
#X connect 16 0 17 0;
#X connect 16 1 19 0;
#X connect 17 0 4 0;
#X connect 17 1 1 0;
#X connect 18 0 25 0;
#X connect 19 0 8 0;
#X connect 19 1 3 0;
#X connect 20 0 15 1;
#X connect 20 0 16 0;
#X connect 21 0 18 1;
#X connect 22 0 2 0;
#X connect 22 0 11 0;
#X connect 22 0 25 1;
#X connect 23 0 22 0;
#X connect 24 0 18 0;
#X connect 25 0 12 0;
#X connect 26 0 1 0;
#X restore 236 261 pd markov-mel;
#N canvas 17 50 1349 696 markov-rythm 0;
#X obj 180 955 + 0;
#X obj 491 323 u_cocollect;
#X msg 515 23 reset;
#X obj 485 529 t b b;
#X obj 443 618 u_cocollect;
#X msg 443 640 1 0 0 \, 0 5 0 \,;
#X msg 485 557 dump;
#X floatatom 210 611 5 0 0 0 - - -, f 5;
#X msg 527 577 reset;
#X text 538 616 Histograms;
#X text 100 -19 numbers from 0 to <max - 1>;
#X obj 240 812 outlet;
#X obj 367 -93 inlet;
#X obj 369 -58 spigot;
#X obj 435 -47 sel 0;
#X obj 435 -20 t b b;
#X obj 249 520 spigot;
#X obj 492 -19 t b b;
#X obj 432 -80 inlet train;
#X obj 625 420 inlet play;
#X obj 255 544 b;
#X obj 243 472 r pos;
#X obj 390 580 m_markovanal 2;
#X obj 251 612 c_markov 2;
#X obj 265 575 f;
#X msg 491 366 0 \, 0 \, 0 \,;
#X obj 1042 263 inlet load;
#X obj 1040 426 outlet save;
#X connect 1 0 25 0;
#X connect 2 0 1 1;
#X connect 3 0 6 0;
#X connect 3 1 4 1;
#X connect 4 0 5 0;
#X connect 6 0 22 1;
#X connect 8 0 22 1;
#X connect 12 0 13 0;
#X connect 13 0 1 0;
#X connect 13 0 22 0;
#X connect 13 0 24 0;
#X connect 14 0 15 0;
#X connect 14 1 17 0;
#X connect 15 0 3 0;
#X connect 15 1 25 0;
#X connect 16 0 20 0;
#X connect 17 0 8 0;
#X connect 17 1 2 0;
#X connect 18 0 13 1;
#X connect 18 0 14 0;
#X connect 19 0 16 1;
#X connect 20 0 23 0;
#X connect 20 0 24 0;
#X connect 21 0 16 0;
#X connect 22 0 4 0;
#X connect 22 0 23 1;
#X connect 23 0 11 0;
#X connect 23 0 24 1;
#X connect 24 0 23 0;
#X connect 24 0 7 0;
#X connect 25 0 22 0;
#X connect 25 0 27 0;
#X connect 26 0 25 0;
#X restore 420 336 pd markov-rythm;
#X msg 532 178 1;
#X obj 270 349 + 48;
#X msg 420 219 0;
#X obj 420 180 r pos;
#X obj 420 199 b;
#X obj 420 357 sel 1;
#X obj 273 199 r train1;
#X obj 420 243 spigot;
#X obj 532 199 t f b b;
#X msg 571 226 0;
#X obj 551 274 delay;
#X msg 551 293 1;
#X obj 578 254 r notetime;
#X obj 292 226 r markovplay1;
#X obj 532 156 r b-step1;
#X obj 254 180 r note-step1;
#X obj 270 369 s note-markov1;
#X obj 236 396 s retro-markov1;
#X obj 399 100 r notes-piano1;
#X text 50 260 une chaine pour la mélodie;
#X text 540 327 une chaine pour le rythme;
#X connect 0 0 3 0;
#X connect 0 0 19 0;
#X connect 1 0 7 0;
#X connect 2 0 10 0;
#X connect 3 0 18 0;
#X connect 4 0 9 0;
#X connect 5 0 6 0;
#X connect 6 0 4 0;
#X connect 7 0 0 0;
#X connect 8 0 0 2;
#X connect 8 0 1 1;
#X connect 9 0 1 0;
#X connect 10 0 1 0;
#X connect 10 1 12 0;
#X connect 10 2 11 0;
#X connect 11 0 9 1;
#X connect 12 0 13 0;
#X connect 13 0 9 1;
#X connect 14 0 12 1;
#X connect 15 0 0 3;
#X connect 15 0 1 2;
#X connect 16 0 2 0;
#X connect 17 0 0 1;
#X connect 20 0 2 0;
#X connect 20 0 0 1;
#X restore 20 48 pd markov1;
#N canvas 250 102 836 680 messages-retro-eclairage 0;
#X obj -127 113 b;
#X obj -127 134 s c.r;
#X obj -113 158 b;
#X obj -113 179 s csharp.r;
#X obj -99 202 b;
#X obj -99 223 s d.r;
#X obj -85 249 b;
#X obj -85 270 s dsharp.r;
#X obj -69 293 b;
#X obj -56 339 b;
#X obj -69 314 s e.r;
#X obj -56 360 s f.r;
#X obj -42 382 b;
#X obj -42 403 s fsharp.r;
#X obj -28 426 b;
#X obj -28 447 s g.r;
#X obj -13 473 b;
#X obj -13 494 s gsharp.r;
#X obj 1 519 b;
#X obj 15 560 b;
#X obj 15 581 s asharp.r;
#X obj 1 540 s a.r;
#X obj 29 602 b;
#X obj 29 623 s b.r;
#X obj -127 43 sel 0 1 2 3 4 5 6 7 8 9 10 11;
#X obj -127 20 r retro-markov1;
#X obj 107 96 r tatap1-p0;
#X obj 107 141 r tatap1-p1;
#X obj 107 185 r tatap1-p2;
#X obj 107 232 r tatap1-p3;
#X obj 106 276 r tatap1-p4;
#X obj 106 322 r tatap1-p5;
#X obj 106 365 r tatap1-p6;
#X obj 106 409 r tatap1-p7;
#X obj 106 456 r tatap1-p8;
#X obj 106 502 r tatap1-p9;
#X obj 106 543 r tatap1-p10;
#X obj 106 585 r tatap1-p11;
#X text 214 31 on reçoit les notes de markov pour le rétro éclairage
lorsque le mode jeu est enclenché.;
#X connect 0 0 1 0;
#X connect 2 0 3 0;
#X connect 4 0 5 0;
#X connect 6 0 7 0;
#X connect 8 0 10 0;
#X connect 9 0 11 0;
#X connect 12 0 13 0;
#X connect 14 0 15 0;
#X connect 16 0 17 0;
#X connect 18 0 21 0;
#X connect 19 0 20 0;
#X connect 22 0 23 0;
#X connect 24 0 0 0;
#X connect 24 1 2 0;
#X connect 24 2 4 0;
#X connect 24 3 6 0;
#X connect 24 4 8 0;
#X connect 24 5 9 0;
#X connect 24 6 12 0;
#X connect 24 7 14 0;
#X connect 24 8 16 0;
#X connect 24 9 18 0;
#X connect 24 10 19 0;
#X connect 24 11 22 0;
#X connect 25 0 24 0;
#X connect 26 0 0 0;
#X connect 27 0 2 0;
#X connect 28 0 4 0;
#X connect 29 0 6 0;
#X connect 30 0 8 0;
#X connect 31 0 9 0;
#X connect 32 0 12 0;
#X connect 33 0 14 0;
#X connect 34 0 16 0;
#X connect 35 0 18 0;
#X connect 36 0 19 0;
#X connect 37 0 22 0;
#X restore 21 28 pd messages-retro-eclairage;
#N canvas 66 92 797 680 mode-loop 0;
#X obj 105 177 b;
#X obj 134 177 b;
#X obj 163 178 b;
#X obj 192 178 b;
#X obj 220 179 b;
#X obj 249 179 b;
#X obj 278 179 b;
#X msg 541 327 clear;
#X obj 305 179 b;
#X obj 334 179 b;
#X obj 363 180 b;
#X obj 392 180 b;
#X obj 420 181 b;
#X obj 541 270 r wordbutton-Reset;
#X obj 552 293 r wordbutton-Synth-reset;
#X obj 123 766 random 3;
#X obj 123 787 * 12;
#X obj 104 845 + 0;
#X obj 104 726 t f b b;
#X obj 567 359 r loop1;
#X obj 456 151 r write1;
#X obj 105 155 spigot;
#X obj 105 3 r c.b;
#X obj 135 24 r csharp.b;
#X obj 163 45 r d.b;
#X obj 193 65 r dsharp.b;
#X obj 218 3 r e.b;
#X obj 247 24 r f.b;
#X obj 275 45 r fsharp.b;
#X obj 305 67 r g.b;
#X obj 334 -1 r gsharp.b;
#X obj 365 25 r a.b;
#X obj 393 49 r asharp.b;
#X obj 423 70 r b.b;
#X obj 135 129 spigot;
#X obj 163 108 spigot;
#X obj 193 87 spigot;
#X obj 217 152 spigot;
#X obj 247 128 spigot;
#X obj 275 107 spigot;
#X obj 305 86 spigot;
#X obj 335 159 spigot;
#X obj 365 135 spigot;
#X obj 393 114 spigot;
#X obj 423 93 spigot;
#X obj 216 743 s b-step1;
#X obj 217 764 s note-step1;
#X obj 4 813 r note-markov1;
#X obj 105 203 c_taptap_arg step 60 sy1p0;
#X obj 105 225 s tatap1-p0;
#X obj 134 271 s tatap1-p1;
#X obj 163 318 s tatap1-p2;
#X obj 192 362 s tatap1-p3;
#X obj 221 407 s tatap1-p4;
#X obj 250 450 s tatap1-p5;
#X obj 277 490 s tatap1-p6;
#X obj 294 530 s tatap1-p7;
#X obj 323 576 s tatap1-p8;
#X obj 351 617 s tatap1-p9;
#X obj 380 658 s tatap1-p10;
#X obj 410 702 s tatap1-p11;
#X obj 104 867 outlet;
#X obj 134 248 c_taptap_arg step 61 sy1p1;
#X obj 163 298 c_taptap_arg step 62 sy1p2;
#X obj 192 342 c_taptap_arg step 63 sy1p3;
#X obj 221 385 c_taptap_arg step 64 sy1p4;
#X obj 251 427 c_taptap_arg step 65 sy1p5;
#X obj 278 470 c_taptap_arg step 66 sy1p6;
#X obj 294 510 c_taptap_arg step 67 sy1p7;
#X obj 323 556 c_taptap_arg step 68 sy1p8;
#X obj 351 596 c_taptap_arg step 69 sy1p9;
#X obj 380 638 c_taptap_arg step 70 sy1p10;
#X obj 410 683 c_taptap_arg step 71 sy1p11;
#X connect 0 0 48 0;
#X connect 1 0 62 0;
#X connect 2 0 63 0;
#X connect 3 0 64 0;
#X connect 4 0 65 0;
#X connect 5 0 66 0;
#X connect 6 0 67 0;
#X connect 7 0 48 0;
#X connect 7 0 62 0;
#X connect 7 0 63 0;
#X connect 7 0 64 0;
#X connect 7 0 65 0;
#X connect 7 0 66 0;
#X connect 7 0 67 0;
#X connect 7 0 68 0;
#X connect 7 0 69 0;
#X connect 7 0 70 0;
#X connect 7 0 71 0;
#X connect 7 0 72 0;
#X connect 8 0 68 0;
#X connect 9 0 69 0;
#X connect 10 0 70 0;
#X connect 11 0 71 0;
#X connect 12 0 72 0;
#X connect 13 0 7 0;
#X connect 14 0 7 0;
#X connect 15 0 16 0;
#X connect 16 0 17 1;
#X connect 17 0 61 0;
#X connect 18 0 17 0;
#X connect 18 0 46 0;
#X connect 18 1 15 0;
#X connect 18 2 45 0;
#X connect 19 0 48 2;
#X connect 19 0 62 2;
#X connect 19 0 63 2;
#X connect 19 0 64 2;
#X connect 19 0 65 2;
#X connect 19 0 66 2;
#X connect 19 0 67 2;
#X connect 19 0 68 2;
#X connect 19 0 69 2;
#X connect 19 0 70 2;
#X connect 19 0 71 2;
#X connect 19 0 72 2;
#X connect 20 0 44 1;
#X connect 20 0 43 1;
#X connect 20 0 42 1;
#X connect 20 0 41 1;
#X connect 20 0 40 1;
#X connect 20 0 39 1;
#X connect 20 0 38 1;
#X connect 20 0 37 1;
#X connect 20 0 36 1;
#X connect 20 0 35 1;
#X connect 20 0 34 1;
#X connect 20 0 21 1;
#X connect 21 0 0 0;
#X connect 22 0 21 0;
#X connect 23 0 34 0;
#X connect 24 0 35 0;
#X connect 25 0 36 0;
#X connect 26 0 37 0;
#X connect 27 0 38 0;
#X connect 28 0 39 0;
#X connect 29 0 40 0;
#X connect 30 0 41 0;
#X connect 31 0 42 0;
#X connect 32 0 43 0;
#X connect 33 0 44 0;
#X connect 34 0 1 0;
#X connect 35 0 2 0;
#X connect 36 0 3 0;
#X connect 37 0 4 0;
#X connect 38 0 5 0;
#X connect 39 0 6 0;
#X connect 40 0 8 0;
#X connect 41 0 9 0;
#X connect 42 0 10 0;
#X connect 43 0 11 0;
#X connect 44 0 12 0;
#X connect 47 0 17 0;
#X connect 48 0 18 0;
#X connect 48 0 49 0;
#X connect 62 0 18 0;
#X connect 62 0 50 0;
#X connect 63 0 18 0;
#X connect 63 0 51 0;
#X connect 64 0 18 0;
#X connect 64 0 52 0;
#X connect 65 0 18 0;
#X connect 65 0 53 0;
#X connect 66 0 18 0;
#X connect 66 0 54 0;
#X connect 67 0 18 0;
#X connect 67 0 55 0;
#X connect 68 0 18 0;
#X connect 68 0 56 0;
#X connect 69 0 18 0;
#X connect 69 0 57 0;
#X connect 70 0 18 0;
#X connect 70 0 58 0;
#X connect 71 0 18 0;
#X connect 71 0 59 0;
#X connect 72 0 18 0;
#X connect 72 0 60 0;
#X restore 132 89 pd mode-loop;
#X obj 131 272 outlet~;
#X msg 283 107 0;
#X msg 304 128 1;
#X msg 326 149 2;
#X msg 348 170 3;
#X msg 369 108 4;
#X msg 391 129 5;
#X msg 413 150 6;
#X obj 283 220 t f;
#X obj 132 162 t f b;
#N canvas 698 193 648 496 rj_chip_synth 0;
#X obj 188 184 r \$0-control;
#X obj 305 134 s \$0-GUI;
#X obj 20 467 outlet~;
#X obj 19 7 inlet;
#X obj 56 7 inlet;
#N canvas 612 69 473 495 \$0-Gui 0;
#X obj -22 5 r \$0-GUI;
#X obj -22 473 s \$0-control;
#X obj -22 23 g_synthcontrol;
#X obj -22 3 cnv 15 200 20 empty empty Rj_Chip 2 10 0 14 -86853 -262144
0;
#X connect 0 0 2 0;
#X connect 2 0 1 0;
#X restore 225 135 pd \$0-Gui;
#X obj 223 86 inlet;
#X obj 19 135 pack f f f;
#X obj 19 86 makenote;
#X obj 72 61 r notetime;
#N canvas 234 88 990 677 czz_presets 0;
#X obj 114 -235 inlet;
#X obj 114 -211 sel 0 1 2 3 4 5 6 7 8, f 86;
#X obj 83 653 outlet name;
#X obj 83 630 symbol;
#X obj 166 652 outlet parms;
#X obj 83 582 route name;
#X msg 5 82 name FB-String-Brass1 \, mod3d 0.165354 \, mod3c 0.181102
\, mod3b 0.173228 \, mod3a 0.275591 \, mod2d 0.141732 \, mod2c 0.393701
\, mod2b 0.220472 \, mod2a 0.472441 \, mod1d 0.299213 \, mod1c 0.125984
\, mod1b 0.19685 \, mod1a 0.133858 \, osc3d 0.314961 \, osc3c 0.220472
\, osc3b 0.527559 \, osc3a 0.409449 \, osc2d 0.559055 \, osc2c 0.645669
\, osc2b 0.543307 \, osc2a 0.377953 \, osc1d 0.377953 \, osc1c 0.307087
\, osc1b 0.614173 \, osc1a 0.866142 \, env3r 0.133858 \, env3s 0.15748
\, env3d 0.314961 \, env3a 0.259843 \, env2r 0.637795 \, env2s 0.401575
\, env2d 0.338583 \, env2a 0.299213 \, env1r 0.149606 \, env1s 0.110236
\, env1d 0.0551181 \, env1a 0.0551181 \,;
#X msg 141 41 name Gentle-Sync \, mod3d 0.165354 \, mod3c 0.181102
\, mod3b 0.173228 \, mod3a 0.275591 \, mod2d 0.141732 \, mod2c 0.393701
\, mod2b 0.220472 \, mod2a 0.472441 \, mod1d 0.574803 \, mod1c 0.669291
\, mod1b 0.511811 \, mod1a 0.133858 \, osc3d 0.314961 \, osc3c 0.220472
\, osc3b 0.527559 \, osc3a 0.409449 \, osc2d 0.559055 \, osc2c 0.645669
\, osc2b 0.543307 \, osc2a 0.377953 \, osc1d 0.503937 \, osc1c 0.905512
\, osc1b 0.0629921 \, osc1a 0.401575 \, env3r 0.133858 \, env3s 0.15748
\, env3d 0.314961 \, env3a 0.259843 \, env2r 0.0866142 \, env2s 0.0866142
\, env2d 0.251969 \, env2a 0.141732 \, env1r 0.149606 \, env1s 0.110236
\, env1d 0.952756 \, env1a 0 \,;
#X msg 244 12 name RoughSync-Bass \, mod3d 0.165354 \, mod3c 0.181102
\, mod3b 0.173228 \, mod3a 0.275591 \, mod2d 0.141732 \, mod2c 0.393701
\, mod2b 0.220472 \, mod2a 0.472441 \, mod1d 0.574803 \, mod1c 0.669291
\, mod1b 0.511811 \, mod1a 0.133858 \, osc3d 0.314961 \, osc3c 0.220472
\, osc3b 0.527559 \, osc3a 0.409449 \, osc2d 0.559055 \, osc2c 0.645669
\, osc2b 0.543307 \, osc2a 0.377953 \, osc1d 0.503937 \, osc1c 0.905512
\, osc1b 0.0629921 \, osc1a 0.401575 \, env3r 0.0472441 \, env3s 0.0629921
\, env3d 0.0551181 \, env3a 0.0015748 \, env2r 0.0866142 \, env2s 0.0866142
\, env2d 0.181102 \, env2a 0.0472441 \, env1r 0.149606 \, env1s 0.110236
\, env1d 0.11811 \, env1a 0 \,;
#X msg 371 -22 name Thin-Short-Bass \, mod3d 0.559055 \, mod3c 0.181102
\, mod3b 0.173228 \, mod3a 0.275591 \, mod2d 0.141732 \, mod2c 0.393701
\, mod2b 0.220472 \, mod2a 0.472441 \, mod1d 0.574803 \, mod1c 0.669291
\, mod1b 0.0708661 \, mod1a 0.409449 \, osc3d 0.314961 \, osc3c 0.220472
\, osc3b 0.527559 \, osc3a 0.409449 \, osc2d 0.559055 \, osc2c 0.645669
\, osc2b 0.543307 \, osc2a 0.377953 \, osc1d 0.015748 \, osc1c 0 \,
osc1b 0 \, osc1a 0 \, env3r 0.0472441 \, env3s 0.0393701 \, env3d 0.0551181
\, env3a 0.0015748 \, env2r 0.0866142 \, env2s 0.0866142 \, env2d 0.0866142
\, env2a 0.0472441 \, env1r 0.149606 \, env1s 0.0629921 \, env1d 0.0787402
\, env1a 0 \,;
#X msg 467 -47 name Full-Square-Lead \, mod3d 0.251969 \, mod3c 0.181102
\, mod3b 0.173228 \, mod3a 0.275591 \, mod2d 0.141732 \, mod2c 0.393701
\, mod2b 0.220472 \, mod2a 0.472441 \, mod1d 0 \, mod1c 0 \, mod1b
0 \, mod1a 1 \, osc3d 0.314961 \, osc3c 0.220472 \, osc3b 0.527559
\, osc3a 0.409449 \, osc2d 0.559055 \, osc2c 0.645669 \, osc2b 0.543307
\, osc2a 0.377953 \, osc1d 0.440945 \, osc1c 0 \, osc1b 0 \, osc1a
0 \, env3r 0.023622 \, env3s 0.527559 \, env3d 0.0551181 \, env3a 0.00944882
\, env2r 0.0393701 \, env2s 0.637795 \, env2d 0.0866142 \, env2a 0.0472441
\, env1r 0.0314961 \, env1s 0.708661 \, env1d 0.0787402 \, env1a 0.19685
\,;
#X msg 611 -67 name Dull-Brass \, mod3d 0.251969 \, mod3c 0.181102
\, mod3b 0.173228 \, mod3a 0.275591 \, mod2d 0.141732 \, mod2c 0.393701
\, mod2b 0.220472 \, mod2a 0.472441 \, mod1d 0 \, mod1c 0 \, mod1b
0 \, mod1a 0.188976 \, osc3d 0.251969 \, osc3c 0.220472 \, osc3b 0.527559
\, osc3a 0.409449 \, osc2d 0.559055 \, osc2c 0.645669 \, osc2b 0.543307
\, osc2a 0.377953 \, osc1d 0.952756 \, osc1c 0 \, osc1b 0 \, osc1a
0.440945 \, env3r 0.00787402 \, env3s 0.0866142 \, env3d 0.0944882
\, env3a 0.0330709 \, env2r 0.0393701 \, env2s 0.102362 \, env2d 0.23622
\, env2a 0.645669 \, env1r 0.0708661 \, env1s 0.0866142 \, env1d 0.0472441
\, env1a 0.0551181 \,;
#X msg 715 -87 name Slow-Hollow \, mod3d 0.212598 \, mod3c 0.181102
\, mod3b 0.173228 \, mod3a 0.275591 \, mod2d 0.141732 \, mod2c 0.393701
\, mod2b 0.220472 \, mod2a 0.472441 \, mod1d 0.0314961 \, mod1c 0.0314961
\, mod1b 0.220472 \, mod1a 0.866142 \, osc3d 0.251969 \, osc3c 0.220472
\, osc3b 0.527559 \, osc3a 0.409449 \, osc2d 0.19685 \, osc2c 0.228346
\, osc2b 0.165354 \, osc2a 0.0944882 \, osc1d 0.440945 \, osc1c 0.0629921
\, osc1b 0.511811 \, osc1a 0.0866142 \, env3r 0.125984 \, env3s 0.244094
\, env3d 0.354331 \, env3a 0.655118 \, env2r 0.0787402 \, env2s 0.692913
\, env2d 0.291339 \, env2a 0.393701 \, env1r 0.133858 \, env1s 0.519685
\, env1d 0.448819 \, env1a 0.771654 \,;
#X msg 821 -116 name Slow-Thin \, mod3d 0.212598 \, mod3c 0.181102
\, mod3b 0.173228 \, mod3a 0.275591 \, mod2d 0.141732 \, mod2c 0.393701
\, mod2b 0.220472 \, mod2a 0.472441 \, mod1d 0 \, mod1c 0 \, mod1b
0.748031 \, mod1a 0.716535 \, osc3d 0.251969 \, osc3c 0.220472 \, osc3b
0.527559 \, osc3a 0.409449 \, osc2d 0.19685 \, osc2c 0.228346 \, osc2b
0.165354 \, osc2a 0.0944882 \, osc1d 0.0708661 \, osc1c 0.125984 \,
osc1b 0.346457 \, osc1a 0.0866142 \, env3r 0.125984 \, env3s 0.244094
\, env3d 0.354331 \, env3a 0.749606 \, env2r 0.0393701 \, env2s 0.440945
\, env2d 0.141732 \, env2a 0.0314961 \, env1r 0.133858 \, env1s 0.212598
\, env1d 0.125984 \, env1a 0.0629921 \,;
#X obj 554 350 loadbang;
#X msg 554 379 env1a color 128 \, env1a label TONE-ATTACK \, env1d
color 128 \, env1d label TONE-DECAY \, env1r color 128 \, env1r label
TONE-REL \, env1s color 128 \, env1s label TONE-SUS \, env2a color
128 \, env2a label WIDTH-ATTACK \, env2d color 128 \, env2d label WIDTH-DECAY
\, env2r color 128 \, env2r label WIDTH-REL \, env2s color 128 \, env2s
label WIDTH-SUS \, env3a color 128 \, env3a label AMP-ATTACK \, env3d
color 128 \, env3d label AMP-DECAY \, env3r color 128 \, env3r label
AMP-REL \, env3s color 128 \, env3s label AMP-SUS \, mod1a color 128
\, mod1a label FILTER-AMT \, mod1b color 128 \, mod1b label DETUNE
\, mod1c color 128 \, mod1c label SYNC-AMT \, mod1d color 2 \, mod2a
color 2 \, mod2b color 2 \, mod2c color 2 \, mod2d color 2 \, mod3a
color 2 \, mod3b color 2 \, mod3c color 2 \, mod3d color 128 \, mod3d
label VOLME \, osc1a color 128 \, osc1a label OSC1-PW \, osc1b color
128 \, osc1b label OSC2-PW \, osc1c color 128 \, osc1c label OSC1-PWM
osc1d color 128 \, osc1d label OSC2-PWM \, osc2a color 2 \, osc2b color
2 \, osc2c color 2 \, osc2d color 2 \, osc3a color 2 \, osc3b color
2 \, osc3c color 2 \, osc3d color 2 \,;
#X text 552 296 set up the interface to be human readable and show
which controls are actually used;
#X text 554 326 Requires modified [g-hsl];
#X msg 919 -148 name BASSIC \, mod3d 0.212598 \, mod3c 0.181102 \,
mod3b 0.173228 \, mod3a 0.275591 \, mod2d 0.141732 \, mod2c 0.393701
\, mod2b 0.220472 \, mod2a 0.472441 \, mod1d 0 \, mod1c 0 \, mod1b
0.0314961 \, mod1a 0.0629921 \, osc3d 0.251969 \, osc3c 0.220472 \,
osc3b 0.527559 \, osc3a 0.409449 \, osc2d 0.19685 \, osc2c 0.228346
\, osc2b 0.165354 \, osc2a 0.0944882 \, osc1d 0.566929 \, osc1c 0.0708661
\, osc1b 0.92126 \, osc1a 0.0551181 \, env3r 0.00787402 \, env3s 0
\, env3d 0.133858 \, env3a 0.00023622 \, env2r 0.0393701 \, env2s 0.440945
\, env2d 0.661417 \, env2a 0.314961 \, env1r 0.133858 \, env1s 0.724409
\, env1d 0.015748 \, env1a 0.669291 \,;
#X connect 0 0 1 0;
#X connect 1 0 6 0;
#X connect 1 1 7 0;
#X connect 1 2 8 0;
#X connect 1 3 9 0;
#X connect 1 4 10 0;
#X connect 1 5 11 0;
#X connect 1 6 12 0;
#X connect 1 7 13 0;
#X connect 1 8 18 0;
#X connect 3 0 2 0;
#X connect 5 0 3 0;
#X connect 5 1 4 0;
#X connect 6 0 5 0;
#X connect 7 0 5 0;
#X connect 8 0 5 0;
#X connect 9 0 5 0;
#X connect 10 0 5 0;
#X connect 11 0 5 0;
#X connect 12 0 5 0;
#X connect 13 0 5 0;
#X connect 14 0 15 0;
#X connect 15 0 4 0;
#X connect 18 0 5 0;
#X restore 223 109 pd czz_presets;
#X obj 19 201 s_czz \$0-TAG;
#X obj 37 221 s_czz \$0-TAG1;
#X obj 57 240 s_czz \$0-TAG2;
#X obj 75 260 s_czz \$0-TAG3;
#X obj 20 411 *~ 0.8;
#X obj 19 442 tanh~;
#X obj 19 111 poly 6 1;
#X obj 19 158 route 1 2 3 4 5 6;
#X obj 95 282 s_czz \$0-TAG2;
#X obj 113 302 s_czz \$0-TAG3;
#X connect 0 0 11 1;
#X connect 0 0 12 1;
#X connect 0 0 13 1;
#X connect 0 0 14 1;
#X connect 0 0 19 1;
#X connect 0 0 20 1;
#X connect 3 0 8 0;
#X connect 4 0 8 1;
#X connect 6 0 10 0;
#X connect 7 0 18 0;
#X connect 8 0 17 0;
#X connect 8 1 17 1;
#X connect 9 0 8 2;
#X connect 10 1 1 0;
#X connect 11 0 15 0;
#X connect 12 0 15 0;
#X connect 13 0 15 0;
#X connect 14 0 15 0;
#X connect 15 0 16 0;
#X connect 16 0 2 0;
#X connect 17 0 7 0;
#X connect 17 1 7 1;
#X connect 17 2 7 2;
#X connect 18 0 11 0;
#X connect 18 1 12 0;
#X connect 18 2 13 0;
#X connect 18 3 14 0;
#X connect 18 4 19 0;
#X connect 18 5 20 0;
#X connect 19 0 15 0;
#X connect 20 0 15 0;
#X restore 132 237 pd rj_chip_synth;
#X msg 434 169 7;
#X msg 456 125 8;
#X msg 178 179 100;
#X obj 283 48 r synthpreset.s/idx;
#X obj 283 79 sel 0 1 2 3 4 5 6 7 8, f 33;
#X connect 0 0 2 0;
#X connect 0 0 15 0;
#X connect 1 0 0 0;
#X connect 5 0 15 0;
#X connect 7 0 14 0;
#X connect 8 0 14 0;
#X connect 9 0 14 0;
#X connect 10 0 14 0;
#X connect 11 0 14 0;
#X connect 12 0 14 0;
#X connect 13 0 14 0;
#X connect 14 0 16 2;
#X connect 15 0 16 0;
#X connect 15 1 19 0;
#X connect 16 0 6 0;
#X connect 17 0 14 0;
#X connect 18 0 14 0;
#X connect 19 0 16 1;
#X connect 20 0 21 0;
#X connect 21 0 7 0;
#X connect 21 1 8 0;
#X connect 21 2 9 0;
#X connect 21 3 10 0;
#X connect 21 4 11 0;
#X connect 21 5 12 0;
#X connect 21 6 13 0;
#X connect 21 7 17 0;
#X connect 21 8 18 0;
#X restore 35 -96 pd synth-page;
#X obj 34 -31 *~;
#N canvas 66 87 450 300 line 0;
#X obj 369 73 / 100;
#X obj 369 94 t f b;
#X msg 396 115 5;
#X obj 361 37 inlet;
#X obj 369 134 line~;
#X obj 368 166 outlet~;
#X connect 0 0 1 0;
#X connect 1 0 4 0;
#X connect 1 1 2 0;
#X connect 2 0 4 1;
#X connect 3 0 0 0;
#X connect 4 0 5 0;
#X restore 48 -52 pd line;
#X obj 48 -74 r vol2;
#N canvas 445 245 378 317 init-reset 0;
#X obj 126 -140 loadbang;
#X obj 126 -18 s \$0-loadbang;
#X obj 161 -117 r wordbutton-Reset;
#X msg 161 -89 0;
#X obj 126 4 s init;
#X msg 9 -123 \; vol2.r 100 \; pd dsp 1 \;;
#X connect 0 0 1 0;
#X connect 0 0 3 0;
#X connect 0 0 5 0;
#X connect 0 0 4 0;
#X connect 2 0 3 0;
#X restore 33 -195 pd init-reset;
#N canvas 428 143 745 372 TOGGLES-receive_send 0;
#X obj 40 142 note-onoff c;
#X obj 40 161 note-onoff csharp;
#X obj 40 180 note-onoff d;
#X obj 40 199 note-onoff dsharp;
#X obj 40 218 note-onoff e;
#X obj 40 237 note-onoff f;
#X obj 40 256 note-onoff fsharp;
#X obj 40 275 note-onoff g;
#X obj 40 295 note-onoff gsharp;
#X obj 40 313 note-onoff a;
#X obj 40 333 note-onoff asharp;
#X obj 40 352 note-onoff b;
#X obj 158 141 note-onoff c-1;
#X obj 158 160 note-onoff csharp-1;
#X obj 158 179 note-onoff d-1;
#X obj 158 198 note-onoff dsharp-1;
#X obj 158 217 note-onoff e-1;
#X obj 158 236 note-onoff f-1;
#X obj 158 255 note-onoff fsharp-1;
#X obj 158 274 note-onoff g-1;
#X obj 158 294 note-onoff gsharp-1;
#X obj 158 312 note-onoff a-1;
#X obj 158 332 note-onoff asharp-1;
#X obj 158 351 note-onoff b-1;
#X text 222 11 ces abstractions ont pour objet de recevoir un message
des toggles de l'interface par exemple t1 \, elles vont alors envoyer
un message de type t1.b \, elles vont recevoir la durée de la note
(en fonction du bpm) et envoyer après un delais de cette durée un message
0 à t1.r pour éteindre le toggle en question.;
#X text 312 93 On a donc un retour visuel possible sur l'interface
et un message permettrant d'indiquer que tel case a été touchée.;
#X text 312 133 On récupérer les messages en \$1.b dans les pages dédiées
à chaque instrument.;
#X restore 33 -153 pd TOGGLES-receive_send;
#X obj 183 -186 declare -path rj;
#X text 205 -89 TODO;
#X text 207 -62 add delays;
#X text 208 -45 note duration ?;
#X text 207 -22 note duration ?;
#X text 211 0 note duration ?;
#X connect 2 0 3 0;
#X connect 3 0 1 0;
#X connect 3 0 1 1;
#X connect 4 0 3 1;
#X connect 5 0 4 0;
