#N canvas 486 127 543 247 10;
#X obj 98 98 delay;
#X msg 98 118 0;
#X obj 98 57 sel 1;
#X obj 66 12 r \$1;
#X obj 98 138 s \$1.r;
#X obj 125 76 r notetime;
#X obj 28 101 b;
#X obj 28 168 s \$1.b;
#X obj 28 59 sel 1;
#X floatatom 164 42 5 0 0 0 - - -, f 5;
#X floatatom 175 106 5 0 0 0 - - -, f 5;
#X connect 0 0 1 0;
#X connect 1 0 4 0;
#X connect 2 0 0 0;
#X connect 3 0 2 0;
#X connect 3 0 8 0;
#X connect 3 0 9 0;
#X connect 5 0 0 1;
#X connect 5 0 10 0;
#X connect 6 0 7 0;
#X connect 8 0 6 0;
