#N canvas 961 81 958 998 10;
#X obj 30 117 r bank-load;
#X obj 30 137 persist-load bank;
#X obj 32 224 r bank-save;
#X obj 31 168 r save_bank;
#X obj 30 61 r load_bank;
#X obj 32 244 persist-save bank;
#X msg 30 81 \; bank load presets cbs;
#X msg 31 188 \; bank save presets cbs;
#X obj 27 29 loadsave bank;
#X obj 149 351 persist-map bank c2.save c2.load;
#X obj 150 369 persist-map bank c3.save c3.load;
#X obj 150 389 persist-map bank c4.save c4.load;
#X obj 150 409 persist-map bank c5.save c5.load;
#X obj 389 408 persist-map bank c5.save c5.load;
#X obj 388 350 persist-map bank g2.save g2.load;
#X obj 389 368 persist-map bank g3.save g3.load;
#X obj 389 388 persist-map bank g4.save g4.load;
#X connect 0 0 1 0;
#X connect 2 0 5 0;
#X connect 3 0 7 0;
#X connect 4 0 6 0;
