#N canvas 1013 435 712 639 10;
#X obj 123 -3 inlet;
#X obj 30 175 f \$2;
#X obj 30 92 b;
#X obj 30 260 outlet;
#X obj 30 218 spigot;
#X msg 324 30 dump;
#X msg 418 89 clear;
#X obj 429 55 r wordbutton-Synth-reset;
#X obj 418 33 r reset.s;
#X obj 370 150 r loop1;
#X obj 164 101 bng 15 250 50 0 empty empty empty 17 7 0 10 -262144
-1 -1;
#X obj 94 29 b;
#X floatatom 47 43 5 0 0 0 - - -, f 5;
#X obj 30 7 r step;
#X obj 50 130 bng 15 250 50 0 empty empty empty 17 7 0 10 -262144 -1
-1;
#X floatatom 113 234 5 0 0 0 - - -, f 5;
#X obj 325 261 s \$1.save;
#X obj 366 189 r \$1.load;
#X obj 324 -6 r save_bank;
#X obj 30 68 rj/c_taptap 16;
#X connect 0 0 10 0;
#X connect 0 0 11 0;
#X connect 1 0 4 0;
#X connect 1 0 15 0;
#X connect 2 0 1 0;
#X connect 2 0 14 0;
#X connect 4 0 3 0;
#X connect 5 0 19 1;
#X connect 6 0 19 1;
#X connect 7 0 6 0;
#X connect 8 0 6 0;
#X connect 9 0 4 1;
#X connect 11 0 19 1;
#X connect 13 0 12 0;
#X connect 13 0 19 0;
#X connect 18 0 5 0;
#X connect 19 0 2 0;
